<?xml version="1.0" encoding="utf-8"?>
<svg version="1.1" viewBox="0 0 36.27 50.18" xmlns="http://www.w3.org/2000/svg">
  <!-- Tin icon scaled and positioned for SF Symbols compatibility -->
 <!--glyph: "1", point size: 100.0, font version: "1", template writer version: "0.1.0"-->
  <g transform="matrix(0.065, 0, 0, 0.065, -14.885, -7.085)">
    <path fill="currentColor" d="M 272 752 L 272 798 L 273 799 L 273 801 L 274 802 L 274 803 L 275 804 L 275 806 L 277 808 L 277 809 L 278 810 L 278 811 L 282 815 L 282 816 L 288 822 L 289 822 L 294 827 L 295 827 L 298 830 L 299 830 L 301 832 L 302 832 L 304 834 L 305 834 L 306 835 L 307 835 L 308 836 L 309 836 L 311 838 L 312 838 L 313 839 L 314 839 L 315 840 L 316 840 L 317 841 L 318 841 L 319 842 L 320 842 L 321 843 L 322 843 L 323 844 L 324 844 L 325 845 L 326 845 L 327 846 L 329 846 L 330 847 L 331 847 L 332 848 L 334 848 L 335 849 L 336 849 L 337 850 L 339 850 L 340 851 L 341 851 L 342 852 L 344 852 L 345 853 L 347 853 L 348 854 L 350 854 L 351 855 L 353 855 L 354 856 L 356 856 L 357 857 L 360 857 L 361 858 L 363 858 L 364 859 L 366 859 L 367 860 L 370 860 L 371 861 L 374 861 L 375 862 L 378 862 L 379 863 L 382 863 L 383 864 L 386 864 L 387 865 L 390 865 L 391 866 L 394 866 L 395 867 L 399 867 L 400 868 L 403 868 L 404 869 L 408 869 L 409 870 L 413 870 L 414 871 L 419 871 L 420 872 L 425 872 L 426 873 L 431 873 L 432 874 L 437 874 L 438 875 L 444 875 L 445 876 L 452 876 L 453 877 L 461 877 L 462 878 L 471 878 L 472 879 L 482 879 L 483 880 L 499 880 L 500 881 L 566 881 L 567 880 L 581 880 L 582 879 L 592 879 L 593 878 L 602 878 L 603 877 L 610 877 L 611 876 L 617 876 L 618 875 L 624 875 L 625 874 L 630 874 L 631 873 L 636 873 L 637 872 L 642 872 L 643 871 L 647 871 L 648 870 L 652 870 L 653 869 L 657 869 L 658 868 L 661 868 L 662 867 L 666 867 L 667 866 L 670 866 L 671 865 L 674 865 L 675 864 L 678 864 L 679 863 L 681 863 L 682 862 L 685 862 L 686 861 L 689 861 L 690 860 L 692 860 L 693 859 L 695 859 L 696 858 L 698 858 L 699 857 L 701 857 L 702 856 L 704 856 L 705 855 L 707 855 L 708 854 L 710 854 L 711 853 L 713 853 L 714 852 L 715 852 L 716 851 L 718 851 L 719 850 L 721 850 L 722 849 L 723 849 L 724 848 L 725 848 L 726 847 L 728 847 L 729 846 L 730 846 L 731 845 L 732 845 L 733 844 L 734 844 L 735 843 L 736 843 L 737 842 L 738 842 L 739 841 L 740 841 L 741 840 L 742 840 L 743 839 L 744 839 L 745 838 L 746 838 L 748 836 L 749 836 L 750 835 L 751 835 L 753 833 L 754 833 L 756 831 L 757 831 L 759 829 L 760 829 L 764 825 L 765 825 L 776 814 L 776 813 L 778 811 L 778 810 L 780 808 L 780 807 L 781 806 L 781 805 L 782 804 L 782 802 L 783 801 L 783 753 L 781 753 L 777 757 L 776 757 L 774 759 L 773 759 L 770 762 L 769 762 L 768 763 L 767 763 L 765 765 L 764 765 L 762 767 L 761 767 L 760 768 L 759 768 L 758 769 L 757 769 L 756 770 L 755 770 L 754 771 L 753 771 L 752 772 L 751 772 L 750 773 L 749 773 L 748 774 L 747 774 L 746 775 L 745 775 L 744 776 L 743 776 L 742 777 L 741 777 L 740 778 L 738 778 L 737 779 L 736 779 L 735 780 L 733 780 L 732 781 L 731 781 L 730 782 L 728 782 L 727 783 L 726 783 L 725 784 L 723 784 L 722 785 L 720 785 L 719 786 L 718 786 L 717 787 L 715 787 L 714 788 L 712 788 L 711 789 L 709 789 L 708 790 L 705 790 L 704 791 L 702 791 L 701 792 L 699 792 L 698 793 L 695 793 L 694 794 L 692 794 L 691 795 L 688 795 L 687 796 L 684 796 L 683 797 L 680 797 L 679 798 L 676 798 L 675 799 L 671 799 L 670 800 L 666 800 L 665 801 L 662 801 L 661 802 L 656 802 L 655 803 L 651 803 L 650 804 L 645 804 L 644 805 L 639 805 L 638 806 L 633 806 L 632 807 L 625 807 L 624 808 L 617 808 L 616 809 L 609 809 L 608 810 L 598 810 L 597 811 L 587 811 L 586 812 L 571 812 L 570 813 L 545 813 L 544 814 L 541 814 L 540 813 L 536 813 L 535 814 L 527 814 L 526 813 L 494 813 L 493 812 L 478 812 L 477 811 L 466 811 L 465 810 L 456 810 L 455 809 L 447 809 L 446 808 L 439 808 L 438 807 L 432 807 L 431 806 L 425 806 L 424 805 L 419 805 L 418 804 L 413 804 L 412 803 L 407 803 L 406 802 L 402 802 L 401 801 L 397 801 L 396 800 L 392 800 L 391 799 L 388 799 L 387 798 L 383 798 L 382 797 L 379 797 L 378 796 L 375 796 L 374 795 L 371 795 L 370 794 L 367 794 L 366 793 L 363 793 L 362 792 L 360 792 L 359 791 L 356 791 L 355 790 L 353 790 L 352 789 L 350 789 L 349 788 L 346 788 L 345 787 L 343 787 L 342 786 L 340 786 L 339 785 L 337 785 L 336 784 L 334 784 L 333 783 L 332 783 L 331 782 L 329 782 L 328 781 L 326 781 L 325 780 L 324 780 L 323 779 L 321 779 L 320 778 L 319 778 L 318 777 L 317 777 L 316 776 L 315 776 L 314 775 L 312 775 L 311 774 L 310 774 L 309 773 L 308 773 L 307 772 L 306 772 L 305 771 L 304 771 L 303 770 L 302 770 L 301 769 L 300 769 L 299 768 L 298 768 L 297 767 L 296 767 L 294 765 L 293 765 L 292 764 L 291 764 L 289 762 L 288 762 L 287 761 L 286 761 L 283 758 L 282 758 L 280 756 L 279 756 L 276 753 L 275 753 L 274 752 Z"/>
    <path d="M 272 558 L 272 724 L 281 733 L 282 733 L 285 736 L 286 736 L 289 739 L 290 739 L 292 741 L 293 741 L 295 743 L 296 743 L 298 745 L 299 745 L 300 746 L 301 746 L 302 747 L 303 747 L 305 749 L 306 749 L 307 750 L 308 750 L 309 751 L 310 751 L 311 752 L 312 752 L 313 753 L 314 753 L 315 754 L 316 754 L 317 755 L 318 755 L 319 756 L 321 756 L 322 757 L 323 757 L 324 758 L 325 758 L 326 759 L 327 759 L 328 760 L 330 760 L 331 761 L 332 761 L 333 762 L 335 762 L 336 763 L 337 763 L 338 764 L 340 764 L 341 765 L 343 765 L 344 766 L 345 766 L 346 767 L 348 767 L 349 768 L 351 768 L 352 769 L 354 769 L 355 770 L 357 770 L 358 771 L 361 771 L 362 772 L 364 772 L 365 773 L 368 773 L 369 774 L 372 774 L 373 775 L 376 775 L 377 776 L 380 776 L 381 777 L 384 777 L 385 778 L 388 778 L 389 779 L 392 779 L 393 780 L 397 780 L 398 781 L 402 781 L 403 782 L 407 782 L 408 783 L 412 783 L 413 784 L 418 784 L 419 785 L 424 785 L 425 786 L 430 786 L 431 787 L 437 787 L 438 788 L 444 788 L 445 789 L 452 789 L 453 790 L 461 790 L 462 791 L 471 791 L 472 792 L 484 792 L 485 793 L 504 793 L 505 794 L 553 794 L 554 793 L 575 793 L 576 792 L 589 792 L 590 791 L 599 791 L 600 790 L 609 790 L 610 789 L 616 789 L 617 788 L 624 788 L 625 787 L 631 787 L 632 786 L 637 786 L 638 785 L 643 785 L 644 784 L 648 784 L 649 783 L 653 783 L 654 782 L 658 782 L 659 781 L 663 781 L 664 780 L 667 780 L 668 779 L 672 779 L 673 778 L 676 778 L 677 777 L 680 777 L 681 776 L 684 776 L 685 775 L 688 775 L 689 774 L 691 774 L 692 773 L 695 773 L 696 772 L 698 772 L 699 771 L 701 771 L 702 770 L 704 770 L 705 769 L 707 769 L 708 768 L 710 768 L 711 767 L 713 767 L 714 766 L 716 766 L 717 765 L 718 765 L 719 764 L 721 764 L 722 763 L 724 763 L 725 762 L 726 762 L 727 761 L 729 761 L 730 760 L 731 760 L 732 759 L 733 759 L 734 758 L 736 758 L 737 757 L 738 757 L 739 756 L 740 756 L 741 755 L 742 755 L 743 754 L 744 754 L 745 753 L 746 753 L 747 752 L 748 752 L 749 751 L 750 751 L 751 750 L 752 750 L 754 748 L 755 748 L 756 747 L 757 747 L 759 745 L 760 745 L 761 744 L 762 744 L 764 742 L 765 742 L 768 739 L 769 739 L 772 736 L 773 736 L 780 729 L 781 729 L 781 728 L 783 726 L 783 559 L 780 559 L 778 561 L 777 561 L 775 563 L 774 563 L 772 565 L 771 565 L 769 567 L 768 567 L 767 568 L 766 568 L 765 569 L 764 569 L 762 571 L 761 571 L 760 572 L 759 572 L 758 573 L 757 573 L 756 574 L 755 574 L 754 575 L 753 575 L 752 576 L 751 576 L 750 577 L 749 577 L 748 578 L 746 578 L 745 579 L 744 579 L 743 580 L 742 580 L 741 581 L 739 581 L 738 582 L 737 582 L 736 583 L 735 583 L 734 584 L 732 584 L 731 585 L 729 585 L 728 586 L 727 586 L 726 587 L 724 587 L 723 588 L 721 588 L 720 589 L 719 589 L 718 590 L 716 590 L 715 591 L 713 591 L 712 592 L 709 592 L 708 593 L 706 593 L 705 594 L 703 594 L 702 595 L 700 595 L 699 596 L 696 596 L 695 597 L 693 597 L 692 598 L 689 598 L 688 599 L 685 599 L 684 600 L 681 600 L 680 601 L 677 601 L 676 602 L 673 602 L 672 603 L 668 603 L 667 604 L 664 604 L 663 605 L 659 605 L 658 606 L 654 606 L 653 607 L 648 607 L 647 608 L 642 608 L 641 609 L 636 609 L 635 610 L 629 610 L 628 611 L 622 611 L 621 612 L 614 612 L 613 613 L 605 613 L 604 614 L 595 614 L 594 615 L 583 615 L 582 616 L 567 616 L 566 617 L 496 617 L 495 616 L 479 616 L 478 615 L 466 615 L 465 614 L 456 614 L 455 613 L 447 613 L 446 612 L 439 612 L 438 611 L 432 611 L 431 610 L 425 610 L 424 609 L 418 609 L 417 608 L 412 608 L 411 607 L 407 607 L 406 606 L 401 606 L 400 605 L 396 605 L 395 604 L 392 604 L 391 603 L 387 603 L 386 602 L 382 602 L 381 601 L 378 601 L 377 600 L 374 600 L 373 599 L 370 599 L 369 598 L 366 598 L 365 597 L 362 597 L 361 596 L 359 596 L 358 595 L 356 595 L 355 594 L 352 594 L 351 593 L 349 593 L 348 592 L 346 592 L 345 591 L 343 591 L 342 590 L 340 590 L 339 589 L 337 589 L 336 588 L 334 588 L 333 587 L 331 587 L 330 586 L 328 586 L 327 585 L 326 585 L 325 584 L 323 584 L 322 583 L 321 583 L 320 582 L 318 582 L 317 581 L 316 581 L 315 580 L 313 580 L 312 579 L 311 579 L 310 578 L 309 578 L 308 577 L 307 577 L 306 576 L 304 576 L 303 575 L 302 575 L 301 574 L 300 574 L 299 573 L 298 573 L 297 572 L 296 572 L 295 571 L 294 571 L 293 570 L 292 570 L 290 568 L 289 568 L 288 567 L 287 567 L 285 565 L 284 565 L 282 563 L 281 563 L 279 561 L 278 561 L 276 559 L 275 559 L 274 558 Z"/>
    <path d="M 781 481 L 775 487 L 774 487 L 771 490 L 770 490 L 768 492 L 767 492 L 765 494 L 764 494 L 763 495 L 762 495 L 760 497 L 759 497 L 758 498 L 757 498 L 756 499 L 755 499 L 754 500 L 753 500 L 752 501 L 751 501 L 750 502 L 749 502 L 748 503 L 747 503 L 746 504 L 745 504 L 744 505 L 743 505 L 742 506 L 741 506 L 740 507 L 739 507 L 738 508 L 736 508 L 735 509 L 734 509 L 733 510 L 731 510 L 730 511 L 729 511 L 728 512 L 726 512 L 725 513 L 724 513 L 723 514 L 721 514 L 720 515 L 718 515 L 717 516 L 715 516 L 714 517 L 712 517 L 711 518 L 709 518 L 708 519 L 706 519 L 705 520 L 703 520 L 702 521 L 699 521 L 698 522 L 696 522 L 695 523 L 692 523 L 691 524 L 688 524 L 687 525 L 684 525 L 683 526 L 680 526 L 679 527 L 676 527 L 675 528 L 671 528 L 670 529 L 666 529 L 665 530 L 661 530 L 660 531 L 656 531 L 655 532 L 651 532 L 650 533 L 645 533 L 644 534 L 639 534 L 638 535 L 632 535 L 631 536 L 625 536 L 624 537 L 618 537 L 617 538 L 610 538 L 609 539 L 601 539 L 600 540 L 590 540 L 589 541 L 577 541 L 576 542 L 560 542 L 559 543 L 490 543 L 489 542 L 471 542 L 470 541 L 459 541 L 458 540 L 449 540 L 448 539 L 441 539 L 440 538 L 433 538 L 432 537 L 425 537 L 424 536 L 417 536 L 416 535 L 411 535 L 410 534 L 404 534 L 403 533 L 398 533 L 397 532 L 393 532 L 392 531 L 388 531 L 387 530 L 383 530 L 382 529 L 379 529 L 378 528 L 374 528 L 373 527 L 370 527 L 369 526 L 366 526 L 365 525 L 362 525 L 361 524 L 358 524 L 357 523 L 354 523 L 353 522 L 350 522 L 349 521 L 347 521 L 346 520 L 344 520 L 343 519 L 340 519 L 339 518 L 337 518 L 336 517 L 334 517 L 333 516 L 331 516 L 330 515 L 329 515 L 328 514 L 326 514 L 325 513 L 323 513 L 322 512 L 320 512 L 319 511 L 318 511 L 317 510 L 315 510 L 314 509 L 313 509 L 312 508 L 311 508 L 310 507 L 308 507 L 307 506 L 306 506 L 305 505 L 304 505 L 303 504 L 302 504 L 301 503 L 300 503 L 299 502 L 298 502 L 297 501 L 296 501 L 295 500 L 294 500 L 293 499 L 292 499 L 290 497 L 289 497 L 288 496 L 287 496 L 285 494 L 284 494 L 282 492 L 281 492 L 278 489 L 277 489 L 274 486 L 272 486 L 272 531 L 277 536 L 278 536 L 282 540 L 283 540 L 286 543 L 287 543 L 288 544 L 289 544 L 291 546 L 292 546 L 294 548 L 295 548 L 296 549 L 297 549 L 298 550 L 299 550 L 300 551 L 301 551 L 303 553 L 304 553 L 305 554 L 306 554 L 307 555 L 308 555 L 309 556 L 310 556 L 311 557 L 312 557 L 313 558 L 314 558 L 315 559 L 317 559 L 318 560 L 319 560 L 320 561 L 321 561 L 322 562 L 323 562 L 324 563 L 326 563 L 327 564 L 328 564 L 329 565 L 331 565 L 332 566 L 333 566 L 334 567 L 336 567 L 337 568 L 339 568 L 340 569 L 342 569 L 343 570 L 345 570 L 346 571 L 348 571 L 349 572 L 351 572 L 352 573 L 354 573 L 355 574 L 357 574 L 358 575 L 361 575 L 362 576 L 364 576 L 365 577 L 368 577 L 369 578 L 372 578 L 373 579 L 376 579 L 377 580 L 380 580 L 381 581 L 384 581 L 385 582 L 388 582 L 389 583 L 393 583 L 394 584 L 398 584 L 399 585 L 403 585 L 404 586 L 408 586 L 409 587 L 414 587 L 415 588 L 420 588 L 421 589 L 426 589 L 427 590 L 433 590 L 434 591 L 440 591 L 441 592 L 448 592 L 449 593 L 457 593 L 458 594 L 468 594 L 469 595 L 480 595 L 481 596 L 496 596 L 497 597 L 564 597 L 565 596 L 579 596 L 580 595 L 592 595 L 593 594 L 602 594 L 603 593 L 611 593 L 612 592 L 619 592 L 620 591 L 626 591 L 627 590 L 633 590 L 634 589 L 639 589 L 640 588 L 644 588 L 645 587 L 650 587 L 651 586 L 655 586 L 656 585 L 660 585 L 661 584 L 665 584 L 666 583 L 669 583 L 670 582 L 674 582 L 675 581 L 678 581 L 679 580 L 682 580 L 683 579 L 685 579 L 686 578 L 689 578 L 690 577 L 693 577 L 694 576 L 696 576 L 697 575 L 699 575 L 700 574 L 702 574 L 703 573 L 706 573 L 707 572 L 709 572 L 710 571 L 712 571 L 713 570 L 715 570 L 716 569 L 717 569 L 718 568 L 720 568 L 721 567 L 723 567 L 724 566 L 725 566 L 726 565 L 728 565 L 729 564 L 730 564 L 731 563 L 732 563 L 733 562 L 735 562 L 736 561 L 737 561 L 738 560 L 739 560 L 740 559 L 742 559 L 743 558 L 744 558 L 745 557 L 746 557 L 747 556 L 748 556 L 749 555 L 750 555 L 751 554 L 752 554 L 753 553 L 754 553 L 756 551 L 757 551 L 758 550 L 759 550 L 760 549 L 761 549 L 763 547 L 764 547 L 766 545 L 767 545 L 768 544 L 769 544 L 772 541 L 773 541 L 776 538 L 777 538 L 783 532 L 783 481 Z"/>
    <path d="M 522 357 L 521 358 L 520 358 L 517 361 L 516 361 L 514 363 L 513 363 L 510 366 L 509 366 L 507 368 L 506 368 L 503 371 L 502 371 L 500 373 L 499 373 L 497 375 L 496 375 L 493 378 L 492 378 L 490 380 L 489 380 L 487 382 L 486 382 L 484 384 L 483 384 L 481 386 L 480 386 L 478 388 L 477 388 L 475 390 L 474 390 L 473 391 L 472 391 L 470 393 L 469 393 L 467 395 L 466 395 L 464 397 L 463 397 L 462 398 L 461 398 L 459 400 L 458 400 L 456 402 L 455 402 L 454 403 L 453 403 L 451 405 L 450 405 L 449 406 L 448 406 L 446 408 L 445 408 L 444 409 L 443 409 L 442 410 L 441 410 L 439 412 L 438 412 L 437 413 L 436 413 L 434 415 L 433 415 L 432 416 L 431 416 L 430 417 L 429 417 L 428 418 L 427 418 L 425 420 L 424 420 L 423 421 L 422 421 L 421 422 L 420 422 L 419 423 L 418 423 L 417 424 L 416 424 L 414 426 L 413 426 L 412 427 L 411 427 L 410 428 L 409 428 L 408 429 L 407 429 L 406 430 L 405 430 L 404 431 L 403 431 L 402 432 L 401 432 L 400 433 L 399 433 L 398 434 L 397 434 L 396 435 L 395 435 L 393 437 L 392 437 L 391 438 L 390 438 L 389 439 L 388 439 L 387 440 L 386 440 L 385 441 L 383 441 L 382 442 L 381 442 L 380 443 L 379 443 L 378 444 L 377 444 L 376 445 L 375 445 L 374 446 L 373 446 L 372 447 L 370 447 L 369 448 L 368 448 L 367 449 L 366 449 L 365 450 L 363 450 L 362 451 L 361 451 L 360 452 L 359 452 L 358 453 L 356 453 L 355 454 L 354 454 L 353 455 L 351 455 L 350 456 L 348 456 L 347 457 L 345 457 L 344 458 L 343 458 L 342 459 L 340 459 L 339 460 L 337 460 L 336 461 L 334 461 L 333 462 L 331 462 L 330 463 L 327 463 L 326 464 L 324 464 L 323 465 L 320 465 L 319 466 L 316 466 L 315 467 L 312 467 L 311 468 L 307 468 L 306 469 L 302 469 L 301 470 L 296 470 L 295 471 L 289 471 L 289 473 L 290 474 L 291 474 L 293 476 L 294 476 L 296 478 L 297 478 L 298 479 L 299 479 L 301 481 L 302 481 L 303 482 L 304 482 L 305 483 L 306 483 L 307 484 L 308 484 L 309 485 L 310 485 L 311 486 L 312 486 L 313 487 L 314 487 L 315 488 L 317 488 L 318 489 L 319 489 L 320 490 L 321 490 L 322 491 L 324 491 L 325 492 L 326 492 L 327 493 L 329 493 L 330 494 L 331 494 L 332 495 L 334 495 L 335 496 L 337 496 L 338 497 L 340 497 L 341 498 L 343 498 L 344 499 L 346 499 L 347 500 L 350 500 L 351 501 L 353 501 L 354 502 L 357 502 L 358 503 L 360 503 L 361 504 L 364 504 L 365 505 L 368 505 L 369 506 L 372 506 L 373 507 L 376 507 L 377 508 L 380 508 L 381 509 L 384 509 L 385 510 L 389 510 L 390 511 L 394 511 L 395 512 L 400 512 L 401 513 L 405 513 L 406 514 L 411 514 L 412 515 L 417 515 L 418 516 L 423 516 L 424 517 L 431 517 L 432 518 L 438 518 L 439 519 L 447 519 L 448 520 L 458 520 L 459 521 L 470 521 L 471 522 L 486 522 L 487 523 L 561 523 L 562 522 L 578 522 L 579 521 L 590 521 L 591 520 L 600 520 L 601 519 L 608 519 L 609 518 L 617 518 L 618 517 L 624 517 L 625 516 L 631 516 L 632 515 L 637 515 L 638 514 L 643 514 L 644 513 L 649 513 L 650 512 L 654 512 L 655 511 L 659 511 L 660 510 L 664 510 L 665 509 L 668 509 L 669 508 L 673 508 L 674 507 L 677 507 L 678 506 L 681 506 L 682 505 L 685 505 L 686 504 L 689 504 L 690 503 L 692 503 L 693 502 L 696 502 L 697 501 L 699 501 L 700 500 L 702 500 L 703 499 L 705 499 L 706 498 L 708 498 L 709 497 L 711 497 L 712 496 L 714 496 L 715 495 L 717 495 L 718 494 L 719 494 L 720 493 L 722 493 L 723 492 L 725 492 L 726 491 L 727 491 L 728 490 L 729 490 L 730 489 L 732 489 L 733 488 L 734 488 L 735 487 L 736 487 L 737 486 L 738 486 L 739 485 L 740 485 L 741 484 L 742 484 L 743 483 L 744 483 L 745 482 L 746 482 L 747 481 L 748 481 L 749 480 L 750 480 L 752 478 L 753 478 L 754 477 L 755 477 L 757 475 L 758 475 L 760 473 L 761 473 L 763 471 L 764 471 L 767 468 L 768 468 L 779 457 L 779 456 L 781 454 L 781 453 L 783 451 L 783 450 L 784 449 L 784 448 L 785 447 L 785 445 L 786 444 L 786 440 L 787 439 L 787 434 L 786 433 L 786 430 L 785 429 L 785 427 L 784 426 L 784 425 L 783 424 L 783 423 L 782 422 L 782 421 L 780 419 L 780 418 L 777 415 L 777 414 L 772 409 L 771 409 L 767 405 L 766 405 L 763 402 L 762 402 L 760 400 L 759 400 L 757 398 L 756 398 L 755 397 L 754 397 L 752 395 L 751 395 L 750 394 L 749 394 L 748 393 L 747 393 L 746 392 L 745 392 L 744 391 L 743 391 L 742 390 L 740 390 L 739 389 L 738 389 L 737 388 L 736 388 L 735 387 L 733 387 L 732 386 L 731 386 L 730 385 L 728 385 L 727 384 L 726 384 L 725 383 L 723 383 L 722 382 L 720 382 L 719 381 L 717 381 L 716 380 L 714 380 L 713 379 L 711 379 L 710 378 L 708 378 L 707 377 L 704 377 L 703 376 L 701 376 L 700 375 L 697 375 L 696 374 L 693 374 L 692 373 L 689 373 L 688 372 L 685 372 L 684 371 L 681 371 L 680 370 L 676 370 L 675 369 L 671 369 L 670 368 L 666 368 L 665 367 L 660 367 L 659 366 L 654 366 L 653 365 L 648 365 L 647 364 L 641 364 L 640 363 L 634 363 L 633 362 L 625 362 L 624 361 L 616 361 L 615 360 L 605 360 L 604 359 L 591 359 L 590 358 L 571 358 L 570 357 Z"/>
    <path d="M 546 217 L 545 218 L 542 218 L 541 219 L 539 219 L 538 220 L 536 220 L 535 221 L 533 221 L 532 222 L 530 222 L 529 223 L 528 223 L 527 224 L 525 224 L 524 225 L 523 225 L 522 226 L 521 226 L 520 227 L 519 227 L 518 228 L 517 228 L 516 229 L 514 229 L 512 231 L 511 231 L 510 232 L 509 232 L 508 233 L 507 233 L 506 234 L 505 234 L 504 235 L 503 235 L 502 236 L 501 236 L 499 238 L 498 238 L 497 239 L 496 239 L 495 240 L 494 240 L 493 241 L 492 241 L 490 243 L 489 243 L 487 245 L 486 245 L 485 246 L 484 246 L 482 248 L 481 248 L 479 250 L 478 250 L 476 252 L 475 252 L 474 253 L 473 253 L 471 255 L 470 255 L 467 258 L 466 258 L 464 260 L 463 260 L 461 262 L 460 262 L 458 264 L 457 264 L 454 267 L 453 267 L 451 269 L 450 269 L 447 272 L 446 272 L 443 275 L 442 275 L 439 278 L 438 278 L 435 281 L 434 281 L 431 284 L 430 284 L 426 288 L 425 288 L 421 292 L 420 292 L 415 297 L 414 297 L 409 302 L 408 302 L 402 308 L 401 308 L 377 332 L 377 333 L 373 337 L 373 338 L 370 341 L 370 342 L 368 344 L 368 345 L 367 346 L 367 348 L 373 348 L 374 347 L 377 347 L 378 346 L 380 346 L 381 345 L 383 345 L 384 344 L 386 344 L 387 343 L 389 343 L 390 342 L 391 342 L 392 341 L 393 341 L 394 340 L 396 340 L 397 339 L 398 339 L 399 338 L 400 338 L 401 337 L 402 337 L 403 336 L 404 336 L 405 335 L 406 335 L 407 334 L 408 334 L 409 333 L 410 333 L 411 332 L 412 332 L 413 331 L 414 331 L 415 330 L 416 330 L 418 328 L 419 328 L 420 327 L 421 327 L 422 326 L 423 326 L 424 325 L 425 325 L 427 323 L 428 323 L 429 322 L 430 322 L 432 320 L 433 320 L 434 319 L 435 319 L 437 317 L 438 317 L 439 316 L 440 316 L 442 314 L 443 314 L 445 312 L 446 312 L 448 310 L 449 310 L 450 309 L 451 309 L 453 307 L 454 307 L 457 304 L 458 304 L 460 302 L 461 302 L 463 300 L 464 300 L 466 298 L 467 298 L 470 295 L 471 295 L 473 293 L 474 293 L 477 290 L 478 290 L 481 287 L 482 287 L 485 284 L 486 284 L 489 281 L 490 281 L 494 277 L 495 277 L 499 273 L 500 273 L 505 268 L 506 268 L 513 261 L 514 261 L 539 236 L 539 235 L 544 230 L 544 229 L 547 226 L 547 225 L 549 223 L 549 222 L 550 221 L 550 220 L 551 219 L 551 217 Z"/>
    <path d="M 594 164 L 593 165 L 587 165 L 586 166 L 583 166 L 582 167 L 578 167 L 577 168 L 575 168 L 574 169 L 571 169 L 570 170 L 568 170 L 567 171 L 565 171 L 564 172 L 562 172 L 561 173 L 559 173 L 558 174 L 556 174 L 555 175 L 553 175 L 552 176 L 550 176 L 549 177 L 548 177 L 547 178 L 545 178 L 544 179 L 543 179 L 542 180 L 541 180 L 540 181 L 538 181 L 537 182 L 536 182 L 535 183 L 534 183 L 533 184 L 531 184 L 530 185 L 529 185 L 528 186 L 527 186 L 526 187 L 525 187 L 524 188 L 523 188 L 522 189 L 521 189 L 520 190 L 519 190 L 518 191 L 517 191 L 516 192 L 515 192 L 514 193 L 513 193 L 512 194 L 511 194 L 510 195 L 509 195 L 508 196 L 507 196 L 505 198 L 504 198 L 503 199 L 502 199 L 501 200 L 500 200 L 499 201 L 498 201 L 497 202 L 496 202 L 495 203 L 494 203 L 492 205 L 491 205 L 490 206 L 489 206 L 488 207 L 487 207 L 485 209 L 484 209 L 483 210 L 482 210 L 481 211 L 480 211 L 478 213 L 477 213 L 476 214 L 475 214 L 473 216 L 472 216 L 471 217 L 470 217 L 468 219 L 467 219 L 466 220 L 465 220 L 463 222 L 462 222 L 460 224 L 459 224 L 457 226 L 456 226 L 454 228 L 453 228 L 451 230 L 450 230 L 448 232 L 447 232 L 445 234 L 444 234 L 442 236 L 441 236 L 439 238 L 438 238 L 436 240 L 435 240 L 432 243 L 431 243 L 429 245 L 428 245 L 425 248 L 424 248 L 422 250 L 421 250 L 418 253 L 417 253 L 414 256 L 413 256 L 410 259 L 409 259 L 406 262 L 405 262 L 401 266 L 400 266 L 396 270 L 395 270 L 391 274 L 390 274 L 384 280 L 383 280 L 377 286 L 376 286 L 367 295 L 366 295 L 334 327 L 334 328 L 327 335 L 327 336 L 322 341 L 322 342 L 319 345 L 319 346 L 316 349 L 316 350 L 314 352 L 314 353 L 312 355 L 312 356 L 310 358 L 310 359 L 308 361 L 308 362 L 307 363 L 307 364 L 306 365 L 306 366 L 305 367 L 305 368 L 303 370 L 303 372 L 302 373 L 302 374 L 301 375 L 301 376 L 300 377 L 300 379 L 299 380 L 299 382 L 298 383 L 298 393 L 299 394 L 299 395 L 302 398 L 303 398 L 304 399 L 305 399 L 306 400 L 308 400 L 309 401 L 328 401 L 329 400 L 334 400 L 335 399 L 338 399 L 339 398 L 343 398 L 344 397 L 346 397 L 347 396 L 350 396 L 351 395 L 353 395 L 354 394 L 356 394 L 357 393 L 359 393 L 360 392 L 362 392 L 363 391 L 365 391 L 366 390 L 367 390 L 368 389 L 370 389 L 371 388 L 373 388 L 374 387 L 375 387 L 376 386 L 377 386 L 378 385 L 380 385 L 381 384 L 382 384 L 383 383 L 384 383 L 385 382 L 386 382 L 387 381 L 389 381 L 390 380 L 391 380 L 392 379 L 393 379 L 394 378 L 395 378 L 396 377 L 397 377 L 398 376 L 399 376 L 400 375 L 401 375 L 402 374 L 403 374 L 404 373 L 405 373 L 406 372 L 407 372 L 408 371 L 409 371 L 410 370 L 411 370 L 412 369 L 413 369 L 414 368 L 415 368 L 416 367 L 417 367 L 419 365 L 420 365 L 421 364 L 422 364 L 423 363 L 424 363 L 425 362 L 426 362 L 428 360 L 429 360 L 430 359 L 431 359 L 432 358 L 433 358 L 435 356 L 436 356 L 437 355 L 438 355 L 440 353 L 441 353 L 442 352 L 443 352 L 445 350 L 446 350 L 448 348 L 449 348 L 450 347 L 451 347 L 453 345 L 454 345 L 456 343 L 457 343 L 458 342 L 459 342 L 461 340 L 462 340 L 464 338 L 465 338 L 467 336 L 468 336 L 470 334 L 471 334 L 473 332 L 474 332 L 476 330 L 477 330 L 480 327 L 481 327 L 483 325 L 484 325 L 487 322 L 488 322 L 490 320 L 491 320 L 494 317 L 495 317 L 497 315 L 498 315 L 501 312 L 502 312 L 505 309 L 506 309 L 509 306 L 510 306 L 514 302 L 515 302 L 519 298 L 520 298 L 524 294 L 525 294 L 530 289 L 531 289 L 536 284 L 537 284 L 544 277 L 545 277 L 558 264 L 559 264 L 569 254 L 569 253 L 583 239 L 583 238 L 590 231 L 590 230 L 594 226 L 594 225 L 598 221 L 598 220 L 601 217 L 601 216 L 603 214 L 603 213 L 605 211 L 605 210 L 607 208 L 607 207 L 609 205 L 609 204 L 611 202 L 611 201 L 612 200 L 612 199 L 613 198 L 613 197 L 614 196 L 614 195 L 615 194 L 615 193 L 616 192 L 616 191 L 617 190 L 617 188 L 618 187 L 618 185 L 619 184 L 619 180 L 620 179 L 620 174 L 619 173 L 619 171 L 618 170 L 618 169 L 615 166 L 614 166 L 613 165 L 611 165 L 610 164 Z"/>
    <path d="M 551 196 L 552 195 L 557 195 L 558 196 L 562 196 L 563 197 L 564 197 L 565 198 L 566 198 L 571 203 L 571 204 L 573 206 L 573 208 L 574 209 L 574 217 L 573 218 L 573 220 L 572 221 L 572 222 L 571 223 L 571 225 L 569 227 L 569 228 L 567 230 L 567 231 L 565 233 L 565 234 L 563 236 L 563 237 L 559 241 L 559 242 L 551 250 L 551 251 L 532 270 L 531 270 L 522 279 L 521 279 L 515 285 L 514 285 L 510 289 L 509 289 L 504 294 L 503 294 L 500 297 L 499 297 L 496 300 L 495 300 L 492 303 L 491 303 L 488 306 L 487 306 L 484 309 L 483 309 L 481 311 L 480 311 L 478 313 L 477 313 L 474 316 L 473 316 L 471 318 L 470 318 L 468 320 L 467 320 L 465 322 L 464 322 L 462 324 L 461 324 L 459 326 L 458 326 L 456 328 L 455 328 L 453 330 L 452 330 L 450 332 L 449 332 L 447 334 L 446 334 L 445 335 L 444 335 L 442 337 L 441 337 L 440 338 L 439 338 L 437 340 L 436 340 L 434 342 L 433 342 L 432 343 L 431 343 L 430 344 L 429 344 L 427 346 L 426 346 L 425 347 L 424 347 L 423 348 L 422 348 L 421 349 L 420 349 L 419 350 L 418 350 L 416 352 L 415 352 L 414 353 L 413 353 L 412 354 L 411 354 L 410 355 L 409 355 L 408 356 L 407 356 L 406 357 L 405 357 L 404 358 L 403 358 L 402 359 L 400 359 L 399 360 L 398 360 L 397 361 L 396 361 L 395 362 L 393 362 L 392 363 L 391 363 L 390 364 L 388 364 L 387 365 L 385 365 L 384 366 L 382 366 L 381 367 L 379 367 L 378 368 L 375 368 L 374 369 L 371 369 L 370 370 L 358 370 L 357 369 L 355 369 L 354 368 L 353 368 L 348 363 L 348 362 L 347 361 L 347 360 L 346 359 L 346 345 L 347 344 L 347 342 L 348 341 L 348 340 L 349 339 L 349 338 L 350 337 L 350 336 L 352 334 L 352 333 L 354 331 L 354 330 L 358 326 L 358 325 L 366 317 L 366 316 L 378 304 L 379 304 L 389 294 L 390 294 L 398 286 L 399 286 L 405 280 L 406 280 L 410 276 L 411 276 L 415 272 L 416 272 L 420 268 L 421 268 L 425 264 L 426 264 L 429 261 L 430 261 L 433 258 L 434 258 L 437 255 L 438 255 L 440 253 L 441 253 L 444 250 L 445 250 L 447 248 L 448 248 L 451 245 L 452 245 L 454 243 L 455 243 L 457 241 L 458 241 L 460 239 L 461 239 L 463 237 L 464 237 L 466 235 L 467 235 L 469 233 L 470 233 L 471 232 L 472 232 L 474 230 L 475 230 L 476 229 L 477 229 L 479 227 L 480 227 L 481 226 L 482 226 L 484 224 L 485 224 L 486 223 L 487 223 L 488 222 L 489 222 L 491 220 L 492 220 L 493 219 L 494 219 L 495 218 L 496 218 L 497 217 L 498 217 L 500 215 L 501 215 L 502 214 L 503 214 L 504 213 L 505 213 L 506 212 L 507 212 L 508 211 L 509 211 L 510 210 L 511 210 L 512 209 L 513 209 L 514 208 L 515 208 L 516 207 L 517 207 L 518 206 L 519 206 L 520 205 L 522 205 L 523 204 L 524 204 L 525 203 L 526 203 L 527 202 L 529 202 L 530 201 L 531 201 L 532 200 L 534 200 L 535 199 L 537 199 L 538 198 L 540 198 L 541 197 L 544 197 L 545 196 Z"/>
    <path d="M 638 109 L 637 110 L 630 110 L 629 111 L 624 111 L 623 112 L 619 112 L 618 113 L 615 113 L 614 114 L 611 114 L 610 115 L 607 115 L 606 116 L 604 116 L 603 117 L 601 117 L 600 118 L 597 118 L 596 119 L 594 119 L 593 120 L 591 120 L 590 121 L 588 121 L 587 122 L 585 122 L 584 123 L 583 123 L 582 124 L 580 124 L 579 125 L 577 125 L 576 126 L 575 126 L 574 127 L 572 127 L 571 128 L 570 128 L 569 129 L 567 129 L 566 130 L 565 130 L 564 131 L 562 131 L 561 132 L 560 132 L 559 133 L 558 133 L 557 134 L 555 134 L 554 135 L 553 135 L 552 136 L 551 136 L 550 137 L 549 137 L 548 138 L 547 138 L 546 139 L 544 139 L 543 140 L 542 140 L 541 141 L 540 141 L 539 142 L 538 142 L 537 143 L 536 143 L 535 144 L 534 144 L 533 145 L 532 145 L 531 146 L 530 146 L 529 147 L 528 147 L 527 148 L 526 148 L 525 149 L 524 149 L 523 150 L 522 150 L 521 151 L 520 151 L 519 152 L 518 152 L 517 153 L 516 153 L 515 154 L 514 154 L 513 155 L 512 155 L 510 157 L 509 157 L 508 158 L 507 158 L 506 159 L 505 159 L 504 160 L 503 160 L 502 161 L 501 161 L 500 162 L 499 162 L 497 164 L 496 164 L 495 165 L 494 165 L 493 166 L 492 166 L 491 167 L 490 167 L 488 169 L 487 169 L 486 170 L 485 170 L 484 171 L 483 171 L 481 173 L 480 173 L 479 174 L 478 174 L 476 176 L 475 176 L 474 177 L 473 177 L 471 179 L 470 179 L 469 180 L 468 180 L 466 182 L 465 182 L 464 183 L 463 183 L 461 185 L 460 185 L 459 186 L 458 186 L 456 188 L 455 188 L 453 190 L 452 190 L 451 191 L 450 191 L 448 193 L 447 193 L 445 195 L 444 195 L 442 197 L 441 197 L 440 198 L 439 198 L 437 200 L 436 200 L 434 202 L 433 202 L 431 204 L 430 204 L 428 206 L 427 206 L 425 208 L 424 208 L 422 210 L 421 210 L 419 212 L 418 212 L 416 214 L 415 214 L 413 216 L 412 216 L 410 218 L 409 218 L 407 220 L 406 220 L 404 222 L 403 222 L 401 224 L 400 224 L 397 227 L 396 227 L 394 229 L 393 229 L 390 232 L 389 232 L 387 234 L 386 234 L 383 237 L 382 237 L 379 240 L 378 240 L 376 242 L 375 242 L 372 245 L 371 245 L 367 249 L 366 249 L 363 252 L 362 252 L 359 255 L 358 255 L 354 259 L 353 259 L 350 262 L 349 262 L 345 266 L 344 266 L 339 271 L 338 271 L 333 276 L 332 276 L 326 282 L 325 282 L 318 289 L 317 289 L 306 300 L 305 300 L 289 316 L 289 317 L 277 329 L 277 330 L 270 337 L 270 338 L 265 343 L 265 344 L 261 348 L 261 349 L 257 353 L 257 354 L 255 356 L 255 357 L 252 360 L 252 361 L 249 364 L 249 365 L 247 367 L 247 368 L 246 369 L 246 370 L 244 372 L 244 373 L 242 375 L 242 376 L 241 377 L 241 378 L 240 379 L 240 380 L 239 381 L 239 382 L 238 383 L 238 384 L 237 385 L 237 386 L 236 387 L 236 388 L 235 389 L 235 390 L 234 391 L 234 393 L 233 394 L 233 396 L 232 397 L 232 399 L 231 400 L 231 403 L 230 404 L 230 409 L 229 410 L 229 419 L 230 420 L 230 424 L 231 425 L 231 428 L 232 429 L 232 430 L 233 431 L 233 433 L 235 435 L 235 436 L 237 438 L 237 439 L 242 444 L 243 444 L 245 446 L 246 446 L 247 447 L 248 447 L 249 448 L 250 448 L 251 449 L 253 449 L 254 450 L 256 450 L 257 451 L 260 451 L 261 452 L 267 452 L 268 453 L 275 453 L 276 452 L 287 452 L 288 451 L 295 451 L 296 450 L 300 450 L 301 449 L 305 449 L 306 448 L 309 448 L 310 447 L 313 447 L 314 446 L 316 446 L 317 445 L 320 445 L 321 444 L 323 444 L 324 443 L 327 443 L 328 442 L 330 442 L 331 441 L 333 441 L 334 440 L 336 440 L 337 439 L 339 439 L 340 438 L 341 438 L 342 437 L 344 437 L 345 436 L 347 436 L 348 435 L 349 435 L 350 434 L 352 434 L 353 433 L 354 433 L 355 432 L 357 432 L 358 431 L 359 431 L 360 430 L 361 430 L 362 429 L 364 429 L 365 428 L 366 428 L 367 427 L 368 427 L 369 426 L 371 426 L 372 425 L 373 425 L 374 424 L 375 424 L 376 423 L 377 423 L 378 422 L 379 422 L 380 421 L 381 421 L 382 420 L 383 420 L 384 419 L 385 419 L 386 418 L 387 418 L 388 417 L 389 417 L 390 416 L 391 416 L 392 415 L 393 415 L 394 414 L 395 414 L 396 413 L 397 413 L 398 412 L 399 412 L 400 411 L 401 411 L 402 410 L 403 410 L 404 409 L 405 409 L 406 408 L 407 408 L 408 407 L 409 407 L 411 405 L 412 405 L 413 404 L 414 404 L 415 403 L 416 403 L 417 402 L 418 402 L 419 401 L 420 401 L 422 399 L 423 399 L 424 398 L 425 398 L 426 397 L 427 397 L 428 396 L 429 396 L 431 394 L 432 394 L 433 393 L 434 393 L 436 391 L 437 391 L 438 390 L 439 390 L 440 389 L 441 389 L 443 387 L 444 387 L 445 386 L 446 386 L 448 384 L 449 384 L 450 383 L 451 383 L 453 381 L 454 381 L 456 379 L 457 379 L 458 378 L 459 378 L 461 376 L 462 376 L 464 374 L 465 374 L 466 373 L 467 373 L 469 371 L 470 371 L 472 369 L 473 369 L 475 367 L 476 367 L 478 365 L 479 365 L 481 363 L 482 363 L 484 361 L 485 361 L 487 359 L 488 359 L 491 356 L 492 356 L 494 354 L 495 354 L 498 351 L 499 351 L 501 349 L 502 349 L 505 346 L 506 346 L 508 344 L 509 344 L 512 341 L 513 341 L 516 338 L 517 338 L 520 335 L 521 335 L 524 332 L 525 332 L 529 328 L 530 328 L 533 325 L 534 325 L 538 321 L 539 321 L 543 317 L 544 317 L 548 313 L 549 313 L 553 309 L 554 309 L 559 304 L 560 304 L 567 297 L 568 297 L 574 291 L 575 291 L 583 283 L 584 283 L 594 273 L 595 273 L 628 240 L 628 239 L 637 230 L 637 229 L 643 223 L 643 222 L 647 218 L 647 217 L 651 213 L 651 212 L 654 209 L 654 208 L 656 206 L 656 205 L 659 202 L 659 201 L 661 199 L 661 198 L 663 196 L 663 195 L 665 193 L 665 192 L 666 191 L 666 190 L 668 188 L 668 187 L 669 186 L 669 185 L 671 183 L 671 182 L 672 181 L 672 180 L 673 179 L 673 178 L 674 177 L 674 176 L 675 175 L 675 174 L 676 173 L 676 172 L 677 171 L 677 169 L 678 168 L 678 167 L 679 166 L 679 164 L 680 163 L 680 162 L 681 161 L 681 158 L 682 157 L 682 154 L 683 153 L 683 149 L 684 148 L 684 134 L 683 133 L 683 131 L 682 130 L 682 128 L 681 127 L 681 126 L 680 125 L 680 124 L 676 120 L 676 119 L 675 119 L 671 115 L 670 115 L 669 114 L 668 114 L 667 113 L 666 113 L 665 112 L 663 112 L 662 111 L 660 111 L 659 110 L 653 110 L 652 109 Z"/>
    <path d="M 599 143 L 600 142 L 613 142 L 614 143 L 618 143 L 619 144 L 621 144 L 622 145 L 624 145 L 625 146 L 626 146 L 628 148 L 629 148 L 632 151 L 633 151 L 635 153 L 635 154 L 638 157 L 638 158 L 639 159 L 639 160 L 640 161 L 640 164 L 641 165 L 641 181 L 640 182 L 640 185 L 639 186 L 639 189 L 638 190 L 638 192 L 637 193 L 637 194 L 636 195 L 636 197 L 635 198 L 635 199 L 634 200 L 634 201 L 633 202 L 633 203 L 632 204 L 632 205 L 631 206 L 631 207 L 630 208 L 630 209 L 629 210 L 629 211 L 628 212 L 628 213 L 626 215 L 626 216 L 624 218 L 624 219 L 622 221 L 622 222 L 620 224 L 620 225 L 617 228 L 617 229 L 613 233 L 613 234 L 610 237 L 610 238 L 604 244 L 604 245 L 594 255 L 594 256 L 572 278 L 571 278 L 560 289 L 559 289 L 551 297 L 550 297 L 544 303 L 543 303 L 539 307 L 538 307 L 534 311 L 533 311 L 529 315 L 528 315 L 524 319 L 523 319 L 520 322 L 519 322 L 515 326 L 514 326 L 511 329 L 510 329 L 507 332 L 506 332 L 504 334 L 503 334 L 500 337 L 499 337 L 496 340 L 495 340 L 493 342 L 492 342 L 490 344 L 489 344 L 487 346 L 486 346 L 484 348 L 483 348 L 480 351 L 479 351 L 477 353 L 476 353 L 474 355 L 473 355 L 472 356 L 471 356 L 469 358 L 468 358 L 466 360 L 465 360 L 463 362 L 462 362 L 461 363 L 460 363 L 458 365 L 457 365 L 455 367 L 454 367 L 453 368 L 452 368 L 450 370 L 449 370 L 448 371 L 447 371 L 445 373 L 444 373 L 443 374 L 442 374 L 440 376 L 439 376 L 438 377 L 437 377 L 436 378 L 435 378 L 433 380 L 432 380 L 431 381 L 430 381 L 429 382 L 428 382 L 426 384 L 425 384 L 424 385 L 423 385 L 422 386 L 421 386 L 420 387 L 419 387 L 418 388 L 417 388 L 416 389 L 415 389 L 414 390 L 413 390 L 412 391 L 411 391 L 410 392 L 409 392 L 408 393 L 407 393 L 406 394 L 405 394 L 404 395 L 403 395 L 402 396 L 401 396 L 400 397 L 399 397 L 398 398 L 397 398 L 396 399 L 395 399 L 394 400 L 393 400 L 392 401 L 391 401 L 390 402 L 389 402 L 388 403 L 386 403 L 385 404 L 384 404 L 383 405 L 382 405 L 381 406 L 380 406 L 379 407 L 377 407 L 376 408 L 375 408 L 374 409 L 372 409 L 371 410 L 370 410 L 369 411 L 367 411 L 366 412 L 364 412 L 363 413 L 362 413 L 361 414 L 358 414 L 357 415 L 355 415 L 354 416 L 352 416 L 351 417 L 348 417 L 347 418 L 344 418 L 343 419 L 339 419 L 338 420 L 334 420 L 333 421 L 327 421 L 326 422 L 310 422 L 309 421 L 304 421 L 303 420 L 300 420 L 299 419 L 298 419 L 297 418 L 295 418 L 294 417 L 293 417 L 291 415 L 290 415 L 282 407 L 282 406 L 281 405 L 281 404 L 280 403 L 280 402 L 279 401 L 279 399 L 278 398 L 278 382 L 279 381 L 279 378 L 280 377 L 280 375 L 281 374 L 281 372 L 282 371 L 282 369 L 283 368 L 283 367 L 284 366 L 284 365 L 285 364 L 285 363 L 286 362 L 286 361 L 287 360 L 287 359 L 288 358 L 288 357 L 289 356 L 289 355 L 291 353 L 291 352 L 293 350 L 293 349 L 294 348 L 294 347 L 296 345 L 296 344 L 298 342 L 298 341 L 301 338 L 301 337 L 304 334 L 304 333 L 308 329 L 308 328 L 313 323 L 313 322 L 322 313 L 322 312 L 347 287 L 348 287 L 358 277 L 359 277 L 366 270 L 367 270 L 372 265 L 373 265 L 378 260 L 379 260 L 383 256 L 384 256 L 388 252 L 389 252 L 393 248 L 394 248 L 397 245 L 398 245 L 402 241 L 403 241 L 405 239 L 406 239 L 409 236 L 410 236 L 413 233 L 414 233 L 416 231 L 417 231 L 420 228 L 421 228 L 423 226 L 424 226 L 427 223 L 428 223 L 430 221 L 431 221 L 433 219 L 434 219 L 436 217 L 437 217 L 440 214 L 441 214 L 443 212 L 444 212 L 445 211 L 446 211 L 448 209 L 449 209 L 451 207 L 452 207 L 454 205 L 455 205 L 457 203 L 458 203 L 459 202 L 460 202 L 462 200 L 463 200 L 465 198 L 466 198 L 467 197 L 468 197 L 470 195 L 471 195 L 472 194 L 473 194 L 475 192 L 476 192 L 477 191 L 478 191 L 479 190 L 480 190 L 482 188 L 483 188 L 484 187 L 485 187 L 487 185 L 488 185 L 489 184 L 490 184 L 491 183 L 492 183 L 493 182 L 494 182 L 495 181 L 496 181 L 498 179 L 499 179 L 500 178 L 501 178 L 502 177 L 503 177 L 504 176 L 505 176 L 506 175 L 507 175 L 508 174 L 509 174 L 510 173 L 511 173 L 512 172 L 513 172 L 514 171 L 515 171 L 516 170 L 517 170 L 518 169 L 519 169 L 520 168 L 521 168 L 522 167 L 523 167 L 524 166 L 525 166 L 526 165 L 527 165 L 528 164 L 529 164 L 530 163 L 532 163 L 533 162 L 534 162 L 535 161 L 536 161 L 537 160 L 539 160 L 540 159 L 541 159 L 542 158 L 544 158 L 545 157 L 546 157 L 547 156 L 549 156 L 550 155 L 551 155 L 552 154 L 554 154 L 555 153 L 557 153 L 558 152 L 560 152 L 561 151 L 563 151 L 564 150 L 566 150 L 567 149 L 569 149 L 570 148 L 573 148 L 574 147 L 577 147 L 578 146 L 581 146 L 582 145 L 585 145 L 586 144 L 591 144 L 592 143 Z"/>
  </g>
</svg>
