<svg width="14" height="22" viewBox="0 0 14 22" fill="none" xmlns="http://www.w3.org/2000/svg">
<path d="M1.07886 18.3238V19.6347L1.10395 19.6632V19.7202L1.12904 19.7487V19.7772L1.15413 19.8057V19.8627L1.20431 19.9197V19.9482L1.2294 19.9767V20.0052L1.32975 20.1192V20.1477L1.48029 20.3187H1.50538L1.63083 20.4611H1.65592L1.73119 20.5466H1.75628L1.80646 20.6036H1.83155L1.88172 20.6606H1.90681L1.9319 20.6891H1.95699L1.98208 20.7176H2.00717L2.05735 20.7746H2.08244L2.10753 20.8031H2.13262L2.15771 20.8316H2.1828L2.20789 20.8601H2.23298L2.25807 20.8886H2.28316L2.30825 20.9171H2.33334L2.35843 20.9456H2.38352L2.40861 20.9741H2.4337L2.45879 21.0026H2.50897L2.53405 21.0311H2.55914L2.58423 21.0596H2.63441L2.6595 21.0881H2.68459L2.70968 21.1166H2.75986L2.78495 21.1451H2.81004L2.83513 21.1736H2.88531L2.9104 21.2021H2.96058L2.98567 21.2306H3.03585L3.06094 21.2591H3.11112L3.13621 21.2876H3.18638L3.21147 21.3161H3.28674L3.31183 21.3446H3.36201L3.3871 21.3731H3.43728L3.46237 21.4016H3.53764L3.56273 21.4301H3.638L3.66309 21.4586H3.73836L3.76345 21.487H3.83871L3.8638 21.5155H3.93907L3.96416 21.544H4.03943L4.06452 21.5725H4.13979L4.16488 21.601H4.26524L4.29033 21.6295H4.3656L4.39069 21.658H4.49104L4.51613 21.6865H4.61649L4.64158 21.715H4.76703L4.79212 21.7435H4.91757L4.94266 21.772H5.0681L5.09319 21.8005H5.21864L5.24373 21.829H5.39427L5.41936 21.8575H5.59499L5.62008 21.886H5.82079L5.84588 21.9145H6.07169L6.09678 21.943H6.34767L6.37276 21.9715H6.7742L6.79929 22H8.4552L8.48029 21.9715H8.83155L8.85664 21.943H9.10753L9.13262 21.9145H9.35843L9.38352 21.886H9.55914L9.58423 21.8575H9.73477L9.75986 21.829H9.9104L9.93549 21.8005H10.0609L10.086 21.772H10.2115L10.2366 21.7435H10.362L10.3871 21.715H10.4875L10.5125 21.6865H10.6129L10.638 21.658H10.7384L10.7634 21.6295H10.8387L10.8638 21.601H10.9642L10.9893 21.5725H11.0645L11.0896 21.544H11.1649L11.19 21.5155H11.2652L11.2903 21.487H11.3405L11.3656 21.4586H11.4409L11.466 21.4301H11.5412L11.5663 21.4016H11.6165L11.6416 21.3731H11.6918L11.7169 21.3446H11.767L11.7921 21.3161H11.8423L11.8674 21.2876H11.9176L11.9427 21.2591H11.9928L12.0179 21.2306H12.0681L12.0932 21.2021H12.1434L12.1685 21.1736H12.1936L12.2186 21.1451H12.2688L12.2939 21.1166H12.3441L12.3692 21.0881H12.3943L12.4194 21.0596H12.4444L12.4695 21.0311H12.5197L12.5448 21.0026H12.5699L12.595 20.9741H12.6201L12.6452 20.9456H12.6703L12.6953 20.9171H12.7204L12.7455 20.8886H12.7706L12.7957 20.8601H12.8208L12.8459 20.8316H12.871L12.8961 20.8031H12.9212L12.9462 20.7746H12.9713L13.0215 20.7176H13.0466L13.0717 20.6891H13.0968L13.147 20.6321H13.172L13.2222 20.5751H13.2473L13.2975 20.5181H13.3226L13.4229 20.4041H13.448L13.724 20.0907V20.0622L13.7742 20.0052V19.9767L13.8244 19.9197V19.8912L13.8495 19.8627V19.8342L13.8746 19.8057V19.7487L13.8996 19.7202V18.3523H13.8495L13.7491 18.4663H13.724L13.6738 18.5233H13.6488L13.5735 18.6088H13.5484L13.5233 18.6373H13.4982L13.448 18.6943H13.4229L13.3728 18.7513H13.3477L13.3226 18.7798H13.2975L13.2724 18.8083H13.2473L13.2222 18.8368H13.1971L13.172 18.8653H13.147L13.1219 18.8938H13.0968L13.0717 18.9223H13.0466L13.0215 18.9508H12.9964L12.9713 18.9793H12.9462L12.9212 19.0078H12.8961L12.871 19.0363H12.8459L12.8208 19.0648H12.7706L12.7455 19.0933H12.7204L12.6953 19.1218H12.6452L12.6201 19.1503H12.595L12.5699 19.1788H12.5197L12.4946 19.2073H12.4695L12.4444 19.2358H12.3943L12.3692 19.2643H12.319L12.2939 19.2927H12.2688L12.2437 19.3212H12.1936L12.1685 19.3497H12.1183L12.0932 19.3782H12.043L12.0179 19.4067H11.9427L11.9176 19.4352H11.8674L11.8423 19.4637H11.7921L11.767 19.4922H11.6918L11.6667 19.5207H11.6165L11.5914 19.5492H11.5161L11.491 19.5777H11.4158L11.3907 19.6062H11.3154L11.2903 19.6347H11.2151L11.19 19.6632H11.0896L11.0645 19.6917H10.9642L10.9391 19.7202H10.8638L10.8387 19.7487H10.7133L10.6882 19.7772H10.5878L10.5627 19.8057H10.4373L10.4122 19.8342H10.2867L10.2617 19.8627H10.1362L10.1111 19.8912H9.93549L9.9104 19.9197H9.73477L9.70968 19.9482H9.53405L9.50897 19.9767H9.25807L9.23298 20.0052H8.98208L8.95699 20.0337H8.58065L8.55556 20.0622H7.92832L7.90323 20.0907H7.82796L7.80287 20.0622H7.70251L7.67742 20.0907H7.47671L7.45162 20.0622H6.64875L6.62366 20.0337H6.24732L6.22223 20.0052H5.94624L5.92115 19.9767H5.69535L5.67026 19.9482H5.46954L5.44445 19.9197H5.26882L5.24373 19.8912H5.09319L5.0681 19.8627H4.91757L4.89248 19.8342H4.76703L4.74194 19.8057H4.61649L4.5914 19.7772H4.46595L4.44086 19.7487H4.34051L4.31542 19.7202H4.21506L4.18997 19.6917H4.08961L4.06452 19.6632H3.98925L3.96416 19.6347H3.8638L3.83871 19.6062H3.76345L3.73836 19.5777H3.66309L3.638 19.5492H3.56273L3.53764 19.5207H3.46237L3.43728 19.4922H3.36201L3.33692 19.4637H3.28674L3.26165 19.4352H3.18638L3.16129 19.4067H3.11112L3.08603 19.3782H3.03585L3.01076 19.3497H2.93549L2.9104 19.3212H2.86022L2.83513 19.2927H2.78495L2.75986 19.2643H2.70968L2.68459 19.2358H2.63441L2.60932 19.2073H2.58423L2.55914 19.1788H2.50897L2.48388 19.1503H2.4337L2.40861 19.1218H2.38352L2.35843 19.0933H2.30825L2.28316 19.0648H2.25807L2.23298 19.0363H2.20789L2.1828 19.0078H2.15771L2.13262 18.9793H2.08244L2.05735 18.9508H2.03226L2.00717 18.9223H1.98208L1.95699 18.8938H1.9319L1.90681 18.8653H1.88172L1.85664 18.8368H1.83155L1.80646 18.8083H1.78137L1.75628 18.7798H1.73119L1.7061 18.7513H1.68101L1.63083 18.6943H1.60574L1.58065 18.6658H1.55556L1.50538 18.6088H1.48029L1.4552 18.5803H1.43011L1.35484 18.4948H1.32975L1.27957 18.4378H1.25448L1.17922 18.3523H1.15413L1.12904 18.3238H1.07886Z" fill="currentColor"/>
<path d="M1.07886 12.7953V17.5259L1.30466 17.7824H1.32975L1.40502 17.8679H1.43011L1.50538 17.9534H1.53047L1.58065 18.0104H1.60574L1.65592 18.0674H1.68101L1.73119 18.1244H1.75628L1.78137 18.1528H1.80646L1.83155 18.1813H1.85664L1.90681 18.2383H1.9319L1.95699 18.2668H1.98208L2.00717 18.2953H2.03226L2.05735 18.3238H2.08244L2.10753 18.3523H2.13262L2.15771 18.3808H2.1828L2.20789 18.4093H2.23298L2.25807 18.4378H2.30825L2.33334 18.4663H2.35843L2.38352 18.4948H2.40861L2.4337 18.5233H2.45879L2.48388 18.5518H2.53405L2.55914 18.5803H2.58423L2.60932 18.6088H2.6595L2.68459 18.6373H2.70968L2.73477 18.6658H2.78495L2.81004 18.6943H2.86022L2.88531 18.7228H2.9104L2.93549 18.7513H2.98567L3.01076 18.7798H3.06094L3.08603 18.8083H3.13621L3.16129 18.8368H3.21147L3.23656 18.8653H3.31183L3.33692 18.8938H3.3871L3.41219 18.9223H3.48746L3.51255 18.9508H3.58782L3.61291 18.9793H3.68818L3.71327 19.0078H3.78853L3.81362 19.0363H3.88889L3.91398 19.0648H3.98925L4.01434 19.0933H4.08961L4.1147 19.1218H4.21506L4.24015 19.1503H4.34051L4.3656 19.1788H4.46595L4.49104 19.2073H4.5914L4.61649 19.2357H4.74194L4.76703 19.2642H4.89248L4.91757 19.2927H5.04302L5.0681 19.3212H5.21864L5.24373 19.3497H5.39427L5.41936 19.3782H5.59499L5.62008 19.4067H5.82079L5.84588 19.4352H6.07169L6.09678 19.4637H6.39785L6.42294 19.4922H6.89965L6.92474 19.5207H8.12904L8.15413 19.4922H8.68101L8.7061 19.4637H9.03226L9.05735 19.4352H9.28316L9.30825 19.4067H9.53405L9.55914 19.3782H9.70968L9.73477 19.3497H9.9104L9.93549 19.3212H10.086L10.1111 19.2927H10.2366L10.2617 19.2642H10.3871L10.4122 19.2357H10.5125L10.5376 19.2073H10.638L10.6631 19.1788H10.7634L10.7885 19.1503H10.8889L10.914 19.1218H10.9893L11.0143 19.0933H11.1147L11.1398 19.0648H11.2151L11.2401 19.0363H11.3154L11.3405 19.0078H11.4158L11.4409 18.9793H11.5161L11.5412 18.9508H11.5914L11.6165 18.9223H11.6918L11.7169 18.8938H11.767L11.7921 18.8653H11.8423L11.8674 18.8368H11.9176L11.9427 18.8083H11.9928L12.0179 18.7798H12.0681L12.0932 18.7513H12.1434L12.1685 18.7228H12.2186L12.2437 18.6943H12.2688L12.2939 18.6658H12.3441L12.3692 18.6373H12.4194L12.4444 18.6088H12.4695L12.4946 18.5803H12.5448L12.5699 18.5518H12.595L12.6201 18.5233H12.6452L12.6703 18.4948H12.7204L12.7455 18.4663H12.7706L12.7957 18.4378H12.8208L12.8459 18.4093H12.871L12.8961 18.3808H12.9212L12.9462 18.3523H12.9713L12.9964 18.3238H13.0215L13.0466 18.2953H13.0717L13.0968 18.2668H13.1219L13.172 18.2098H13.1971L13.2222 18.1813H13.2473L13.2975 18.1244H13.3226L13.3477 18.0959H13.3728L13.4229 18.0389H13.448L13.5233 17.9534H13.5484L13.6237 17.8679H13.6488L13.8244 17.6684H13.8495V17.6399L13.8996 17.5829V12.8238H13.8244L13.7742 12.8808H13.7491L13.6989 12.9378H13.6738L13.6237 12.9948H13.5986L13.5484 13.0518H13.5233L13.4982 13.0803H13.4731L13.448 13.1088H13.4229L13.3728 13.1658H13.3477L13.3226 13.1943H13.2975L13.2724 13.2228H13.2473L13.2222 13.2513H13.1971L13.172 13.2798H13.147L13.1219 13.3083H13.0968L13.0717 13.3368H13.0466L13.0215 13.3653H12.9713L12.9462 13.3938H12.9212L12.8961 13.4223H12.871L12.8459 13.4508H12.7957L12.7706 13.4793H12.7455L12.7204 13.5078H12.6953L12.6703 13.5363H12.6201L12.595 13.5648H12.5448L12.5197 13.5933H12.4946L12.4695 13.6218H12.4194L12.3943 13.6503H12.3441L12.319 13.6788H12.2939L12.2688 13.7073H12.2186L12.1936 13.7357H12.1434L12.1183 13.7642H12.043L12.0179 13.7927H11.9677L11.9427 13.8212H11.8925L11.8674 13.8497H11.8172L11.7921 13.8782H11.7169L11.6918 13.9067H11.6416L11.6165 13.9352H11.5412L11.5161 13.9637H11.4409L11.4158 13.9922H11.3405L11.3154 14.0207H11.2401L11.2151 14.0492H11.1398L11.1147 14.0777H11.0143L10.9893 14.1062H10.914L10.8889 14.1347H10.7885L10.7634 14.1632H10.6631L10.638 14.1917H10.5125L10.4875 14.2202H10.362L10.3369 14.2487H10.2115L10.1864 14.2772H10.0358L10.0108 14.3057H9.86022L9.83513 14.3342H9.6595L9.63441 14.3627H9.4337L9.40861 14.3912H9.1828L9.15771 14.4197H8.88173L8.85664 14.4482H8.48029L8.4552 14.4767H6.69893L6.67384 14.4482H6.27241L6.24732 14.4197H5.94624L5.92115 14.3912H5.69535L5.67026 14.3627H5.46954L5.44445 14.3342H5.26882L5.24373 14.3057H5.09319L5.0681 14.2772H4.91757L4.89248 14.2487H4.74194L4.71685 14.2202H4.5914L4.56631 14.1917H4.46595L4.44086 14.1632H4.31542L4.29033 14.1347H4.18997L4.16488 14.1062H4.08961L4.06452 14.0777H3.96416L3.93907 14.0492H3.83871L3.81362 14.0207H3.73836L3.71327 13.9922H3.638L3.61291 13.9637H3.53764L3.51255 13.9352H3.43728L3.41219 13.9067H3.33692L3.31183 13.8782H3.26165L3.23656 13.8497H3.18638L3.16129 13.8212H3.08603L3.06094 13.7927H3.01076L2.98567 13.7642H2.93549L2.9104 13.7357H2.86022L2.83513 13.7073H2.78495L2.75986 13.6788H2.70968L2.68459 13.6503H2.63441L2.60932 13.6218H2.55914L2.53405 13.5933H2.48388L2.45879 13.5648H2.4337L2.40861 13.5363H2.35843L2.33334 13.5078H2.30825L2.28316 13.4793H2.23298L2.20789 13.4508H2.1828L2.15771 13.4223H2.10753L2.08244 13.3938H2.05735L2.03226 13.3653H2.00717L1.98208 13.3368H1.95699L1.9319 13.3083H1.88172L1.85664 13.2798H1.83155L1.80646 13.2513H1.78137L1.75628 13.2228H1.73119L1.7061 13.1943H1.68101L1.65592 13.1658H1.63083L1.60574 13.1373H1.58065L1.53047 13.0803H1.50538L1.48029 13.0518H1.4552L1.40502 12.9948H1.37993L1.32975 12.9378H1.30466L1.25448 12.8808H1.2294L1.17922 12.8238H1.15413L1.12904 12.7953H1.07886Z" fill="currentColor"/>
<path d="M13.8495 10.601L13.6989 10.772H13.6738L13.5986 10.8575H13.5735L13.5233 10.9145H13.4982L13.448 10.9715H13.4229L13.3979 11H13.3728L13.3226 11.057H13.2975L13.2724 11.0855H13.2473L13.2222 11.114H13.1971L13.172 11.1425H13.147L13.1219 11.171H13.0968L13.0717 11.1995H13.0466L13.0215 11.228H12.9964L12.9713 11.2565H12.9462L12.9212 11.285H12.8961L12.871 11.3135H12.8459L12.8208 11.342H12.7957L12.7706 11.3705H12.7204L12.6953 11.399H12.6703L12.6452 11.4275H12.595L12.5699 11.456H12.5448L12.5197 11.4845H12.4695L12.4444 11.513H12.4194L12.3943 11.5415H12.3441L12.319 11.57H12.2688L12.2437 11.5985H12.1936L12.1685 11.627H12.1183L12.0932 11.6554H12.043L12.0179 11.6839H11.9677L11.9427 11.7124H11.8925L11.8674 11.7409H11.7921L11.767 11.7694H11.7169L11.6918 11.7979H11.6165L11.5914 11.8264H11.5161L11.491 11.8549H11.4158L11.3907 11.8834H11.3154L11.2903 11.9119H11.2151L11.19 11.9404H11.0896L11.0645 11.9689H10.9642L10.9391 11.9974H10.8387L10.8136 12.0259H10.7133L10.6882 12.0544H10.5878L10.5627 12.0829H10.4373L10.4122 12.1114H10.2867L10.2617 12.1399H10.1111L10.086 12.1684H9.93549L9.9104 12.1969H9.75986L9.73477 12.2254H9.55914L9.53405 12.2539H9.33334L9.30825 12.2824H9.05735L9.03226 12.3109H8.73119L8.7061 12.3394H8.30466L8.27957 12.3679H6.54839L6.5233 12.3394H6.07169L6.0466 12.3109H5.77061L5.74552 12.2824H5.51972L5.49463 12.2539H5.319L5.29391 12.2254H5.11828L5.09319 12.1969H4.91757L4.89248 12.1684H4.71685L4.69176 12.1399H4.56631L4.54122 12.1114H4.39069L4.3656 12.0829H4.24015L4.21506 12.0544H4.1147L4.08961 12.0259H3.98925L3.96416 11.9974H3.8638L3.83871 11.9689H3.76345L3.73836 11.9404H3.638L3.61291 11.9119H3.53764L3.51255 11.8834H3.43728L3.41219 11.8549H3.33692L3.31183 11.8264H3.23656L3.21147 11.7979H3.13621L3.11112 11.7694H3.03585L3.01076 11.7409H2.96058L2.93549 11.7124H2.88531L2.86022 11.6839H2.78495L2.75986 11.6554H2.70968L2.68459 11.627H2.63441L2.60932 11.5985H2.55914L2.53405 11.57H2.50897L2.48388 11.5415H2.4337L2.40861 11.513H2.35843L2.33334 11.4845H2.28316L2.25807 11.456H2.23298L2.20789 11.4275H2.15771L2.13262 11.399H2.10753L2.08244 11.3705H2.05735L2.03226 11.342H1.98208L1.95699 11.3135H1.9319L1.90681 11.285H1.88172L1.85664 11.2565H1.83155L1.80646 11.228H1.78137L1.75628 11.1995H1.73119L1.7061 11.171H1.68101L1.65592 11.1425H1.63083L1.60574 11.114H1.58065L1.53047 11.057H1.50538L1.48029 11.0285H1.4552L1.40502 10.9715H1.37993L1.32975 10.9145H1.30466L1.2294 10.829H1.20431L1.12904 10.7435H1.07886V12.0259L1.20431 12.1684H1.2294L1.32975 12.2824H1.35484L1.43011 12.3679H1.4552L1.48029 12.3964H1.50538L1.55556 12.4534H1.58065L1.63083 12.5104H1.65592L1.68101 12.5389H1.7061L1.73119 12.5674H1.75628L1.78137 12.5959H1.80646L1.85664 12.6529H1.88172L1.90681 12.6814H1.9319L1.95699 12.7099H1.98208L2.00717 12.7383H2.03226L2.05735 12.7668H2.08244L2.10753 12.7953H2.13262L2.15771 12.8238H2.20789L2.23298 12.8523H2.25807L2.28316 12.8808H2.30825L2.33334 12.9093H2.35843L2.38352 12.9378H2.4337L2.45879 12.9663H2.48388L2.50897 12.9948H2.55914L2.58423 13.0233H2.60932L2.63441 13.0518H2.68459L2.70968 13.0803H2.75986L2.78495 13.1088H2.83513L2.86022 13.1373H2.9104L2.93549 13.1658H2.98567L3.01076 13.1943H3.06094L3.08603 13.2228H3.13621L3.16129 13.2513H3.21147L3.23656 13.2798H3.31183L3.33692 13.3083H3.3871L3.41219 13.3368H3.48746L3.51255 13.3653H3.58782L3.61291 13.3938H3.68818L3.71327 13.4223H3.78853L3.81362 13.4508H3.88889L3.91398 13.4793H3.98925L4.01434 13.5078H4.1147L4.13979 13.5363H4.24015L4.26524 13.5648H4.3656L4.39069 13.5933H4.49104L4.51613 13.6218H4.64158L4.66667 13.6503H4.79212L4.81721 13.6788H4.94266L4.96775 13.7073H5.11828L5.14337 13.7358H5.29391L5.319 13.7643H5.49463L5.51972 13.7928H5.72043L5.74552 13.8213H5.99642L6.02151 13.8497H6.2975L6.32259 13.8782H6.69893L6.72402 13.9067H8.40502L8.43011 13.8782H8.78137L8.80646 13.8497H9.10753L9.13262 13.8213H9.35843L9.38352 13.7928H9.58423L9.60932 13.7643H9.78495L9.81004 13.7358H9.96058L9.98567 13.7073H10.1362L10.1613 13.6788H10.2867L10.3118 13.6503H10.4122L10.4373 13.6218H10.5627L10.5878 13.5933H10.6882L10.7133 13.5648H10.8136L10.8387 13.5363H10.9391L10.9642 13.5078H11.0394L11.0645 13.4793H11.1649L11.19 13.4508H11.2652L11.2903 13.4223H11.3656L11.3907 13.3938H11.4409L11.466 13.3653H11.5412L11.5663 13.3368H11.6416L11.6667 13.3083H11.7169L11.7419 13.2798H11.7921L11.8172 13.2513H11.8674L11.8925 13.2228H11.9677L11.9928 13.1943H12.043L12.0681 13.1658H12.1183L12.1434 13.1373H12.1936L12.2186 13.1088H12.2437L12.2688 13.0803H12.319L12.3441 13.0518H12.3943L12.4194 13.0233H12.4444L12.4695 12.9948H12.5197L12.5448 12.9663H12.5699L12.595 12.9378H12.6201L12.6452 12.9093H12.6953L12.7204 12.8808H12.7455L12.7706 12.8523H12.7957L12.8208 12.8238H12.871L12.8961 12.7953H12.9212L12.9462 12.7668H12.9713L12.9964 12.7383H13.0215L13.0466 12.7099H13.0717L13.0968 12.6814H13.1219L13.147 12.6529H13.172L13.2222 12.5959H13.2473L13.2724 12.5674H13.2975L13.3226 12.5389H13.3477L13.3979 12.4819H13.4229L13.4731 12.4249H13.4982L13.5233 12.3964H13.5484L13.6237 12.3109H13.6488L13.724 12.2254H13.7491L13.8996 12.0544V10.601H13.8495Z" fill="currentColor"/>
<path d="M7.35125 7.06735L7.32616 7.09585H7.30107L7.2258 7.18134H7.20071L7.15053 7.23834H7.12544L7.05017 7.32383H7.02508L6.9749 7.38082H6.94981L6.87455 7.46632H6.84946L6.79928 7.52331H6.77419L6.72401 7.58031H6.69892L6.62365 7.6658H6.59856L6.54838 7.72279H6.52329L6.47311 7.77979H6.44802L6.39784 7.83678H6.37275L6.32257 7.89378H6.29748L6.24731 7.95077H6.22222L6.17204 8.00777H6.14695L6.12186 8.03626H6.09677L6.04659 8.09326H6.0215L5.97132 8.15025H5.94623L5.89605 8.20725H5.87096L5.84587 8.23575H5.82078L5.7706 8.29274H5.74551L5.69533 8.34974H5.67024L5.64516 8.37823H5.62007L5.56989 8.43523H5.5448L5.51971 8.46373H5.49462L5.44444 8.52072H5.41935L5.39426 8.54922H5.36917L5.34408 8.57771H5.31899L5.26881 8.63471H5.24372L5.21863 8.66321H5.19354L5.14336 8.7202H5.11827L5.09318 8.7487H5.06809L5.043 8.7772H5.01792L4.99283 8.80569H4.96774L4.91756 8.86269H4.89247L4.86738 8.89119H4.84229L4.8172 8.91968H4.79211L4.76702 8.94818H4.74193L4.71684 8.97668H4.69175L4.64157 9.03367H4.61648L4.59139 9.06217H4.5663L4.54121 9.09067H4.51612L4.49103 9.11917H4.46594L4.44085 9.14766H4.41576L4.39068 9.17616H4.36559L4.3405 9.20466H4.31541L4.29032 9.23316H4.26523L4.24014 9.26165H4.21505L4.18996 9.29015H4.16487L4.11469 9.34715H4.0896L4.06451 9.37564H4.03942L4.01433 9.40414H3.98924L3.96415 9.43264H3.93906L3.91397 9.46113H3.86379L3.8387 9.48963H3.81361L3.78852 9.51813H3.76344L3.73835 9.54663H3.71326L3.68817 9.57512H3.66308L3.63799 9.60362H3.6129L3.58781 9.63212H3.53763L3.51254 9.66062H3.48745L3.46236 9.68911H3.43727L3.41218 9.71761H3.362L3.33691 9.74611H3.31182L3.28673 9.77461H3.26164L3.23655 9.8031H3.18637L3.16128 9.8316H3.1362L3.11111 9.8601H3.06093L3.03584 9.8886H2.98566L2.96057 9.91709H2.91039L2.8853 9.94559H2.86021L2.83512 9.97409H2.78494L2.75985 10.0026H2.70967L2.68458 10.0311H2.6344L2.60931 10.0596H2.55913L2.53404 10.0881H2.45878L2.43369 10.1166H2.38351L2.35842 10.1451H2.28315L2.25806 10.1736H2.18279L2.1577 10.2021H2.08243L2.05734 10.2306H1.95698L1.93189 10.2591H1.83154L1.80645 10.2876H1.681L1.65591 10.3161H1.50537V10.3731L1.53046 10.4015H1.55555L1.60573 10.4585H1.63082L1.681 10.5155H1.70609L1.73118 10.544H1.75627L1.80645 10.601H1.83154L1.85663 10.6295H1.88172L1.9068 10.658H1.93189L1.95698 10.6865H1.98207L2.00716 10.715H2.03225L2.05734 10.7435H2.08243L2.10752 10.772H2.13261L2.1577 10.8005H2.20788L2.23297 10.829H2.25806L2.28315 10.8575H2.30824L2.33333 10.886H2.38351L2.4086 10.9145H2.43369L2.45878 10.943H2.50896L2.53404 10.9715H2.55913L2.58422 11H2.6344L2.65949 11.0285H2.70967L2.73476 11.057H2.78494L2.81003 11.0855H2.86021L2.8853 11.114H2.93548L2.96057 11.1425H3.03584L3.06093 11.171H3.11111L3.1362 11.1995H3.21146L3.23655 11.228H3.28673L3.31182 11.2565H3.38709L3.41218 11.285H3.48745L3.51254 11.3135H3.58781L3.6129 11.342H3.68817L3.71326 11.3705H3.78852L3.81361 11.399H3.88888L3.91397 11.4275H4.01433L4.03942 11.456H4.13978L4.16487 11.4845H4.29032L4.31541 11.5129H4.41576L4.44085 11.5414H4.5663L4.59139 11.5699H4.71684L4.74193 11.5984H4.86738L4.89247 11.6269H5.06809L5.09318 11.6554H5.24372L5.26881 11.6839H5.46953L5.49462 11.7124H5.74551L5.7706 11.7409H6.04659L6.07168 11.7694H6.44802L6.47311 11.7979H8.32974L8.35483 11.7694H8.75627L8.78136 11.7409H9.05734L9.08243 11.7124H9.30824L9.33333 11.6839H9.50895L9.53404 11.6554H9.73476L9.75985 11.6269H9.91039L9.93548 11.5984H10.086L10.1111 11.5699H10.2366L10.2616 11.5414H10.3871L10.4122 11.5129H10.5376L10.5627 11.4845H10.6631L10.6882 11.456H10.7885L10.8136 11.4275H10.914L10.9391 11.399H11.0143L11.0394 11.3705H11.1398L11.1649 11.342H11.2401L11.2652 11.3135H11.3405L11.3656 11.285H11.4409L11.4659 11.2565H11.5412L11.5663 11.228H11.6165L11.6416 11.1995H11.7168L11.7419 11.171H11.7921L11.8172 11.1425H11.8674L11.8925 11.114H11.9426L11.9677 11.0855H12.0179L12.043 11.057H12.0932L12.1183 11.0285H12.1685L12.1935 11H12.2437L12.2688 10.9715H12.2939L12.319 10.943H12.3692L12.3943 10.9145H12.4444L12.4695 10.886H12.4946L12.5197 10.8575H12.5448L12.5699 10.829H12.6201L12.6452 10.8005H12.6702L12.6953 10.772H12.7204L12.7455 10.7435H12.7706L12.7957 10.715H12.8208L12.8459 10.6865H12.871L12.896 10.658H12.9211L12.9462 10.6295H12.9713L12.9964 10.601H13.0215L13.0466 10.5725H13.0717L13.1219 10.5155H13.1469L13.172 10.487H13.1971L13.2473 10.43H13.2724L13.3226 10.3731H13.3477L13.3978 10.3161H13.4229L13.4982 10.2306H13.5233L13.7993 9.91709V9.8886L13.8495 9.8316V9.8031L13.8996 9.74611V9.71761L13.9247 9.68911V9.66062L13.9498 9.63212V9.57512L13.9749 9.54663V9.43264L14 9.40414V9.26165L13.9749 9.23316V9.14766L13.9498 9.11917V9.06217L13.9247 9.03367V9.00518L13.8996 8.97668V8.94818L13.8745 8.91968V8.89119L13.8244 8.83419V8.80569L13.7491 8.7202V8.6917L13.6236 8.54922H13.5986L13.4982 8.43523H13.4731L13.3978 8.34974H13.3728L13.3226 8.29274H13.2975L13.2473 8.23575H13.2222L13.1971 8.20725H13.172L13.1219 8.15025H13.0968L13.0717 8.12176H13.0466L13.0215 8.09326H12.9964L12.9713 8.06476H12.9462L12.9211 8.03626H12.896L12.871 8.00777H12.8208L12.7957 7.97927H12.7706L12.7455 7.95077H12.7204L12.6953 7.92227H12.6452L12.6201 7.89378H12.595L12.5699 7.86528H12.5197L12.4946 7.83678H12.4695L12.4444 7.80828H12.3943L12.3692 7.77979H12.319L12.2939 7.75129H12.2437L12.2186 7.72279H12.1685L12.1434 7.6943H12.0932L12.0681 7.6658H12.0179L11.9928 7.6373H11.9176L11.8925 7.6088H11.8423L11.8172 7.58031H11.7419L11.7168 7.55181H11.6416L11.6165 7.52331H11.5412L11.5161 7.49481H11.4409L11.4158 7.46632H11.3405L11.3154 7.43782H11.215L11.19 7.40932H11.0896L11.0645 7.38082H10.9642L10.9391 7.35233H10.8136L10.7885 7.32383H10.6631L10.638 7.29533H10.5125L10.4874 7.26683H10.3369L10.3118 7.23834H10.1613L10.1362 7.20984H9.93548L9.91039 7.18134H9.70967L9.68458 7.15284H9.43369L9.4086 7.12435H9.08243L9.05734 7.09585H8.58064L8.55555 7.06735H7.35125Z" fill="currentColor"/>
<path d="M7.95341 3.07771L7.92832 3.10621H7.85305L7.82796 3.13471H7.77778L7.75269 3.16321H7.70252L7.67743 3.1917H7.62725L7.60216 3.2202H7.55198L7.52689 3.2487H7.5018L7.47671 3.27719H7.42653L7.40144 3.30569H7.37635L7.35126 3.33419H7.32617L7.30108 3.36269H7.27599L7.2509 3.39118H7.22581L7.20072 3.41968H7.15054L7.10036 3.47668H7.07528L7.05019 3.50517H7.0251L7.00001 3.53367H6.97492L6.94983 3.56217H6.92474L6.89965 3.59067H6.87456L6.84947 3.61916H6.82438L6.7742 3.67616H6.74911L6.72402 3.70466H6.69893L6.67384 3.73315H6.64875L6.62366 3.76165H6.59857L6.54839 3.81865H6.5233L6.47312 3.87564H6.44804L6.42295 3.90414H6.39786L6.34768 3.96113H6.32259L6.27241 4.01813H6.24732L6.19714 4.07512H6.17205L6.14696 4.10362H6.12187L6.07169 4.16061H6.0466L5.97133 4.24611H5.94624L5.89606 4.3031H5.87097L5.82079 4.3601H5.79571L5.74553 4.41709H5.72044L5.64517 4.50258H5.62008L5.5699 4.55958H5.54481L5.46954 4.64507H5.44445L5.36918 4.73056H5.34409L5.26882 4.81605H5.24373L5.16847 4.90155H5.14338L5.06811 4.98704H5.04302L4.94266 5.10103H4.91757L4.81721 5.21502H4.79212L4.66667 5.35751H4.64158L4.51614 5.49999H4.49105L4.34051 5.67098H4.31542L3.71327 6.35491V6.38341L3.61291 6.4974V6.5259L3.53764 6.61139V6.63989L3.48746 6.69688V6.72538L3.46237 6.75388V6.81087H3.61291L3.638 6.78238H3.71327L3.73836 6.75388H3.78854L3.81363 6.72538H3.86381L3.8889 6.69688H3.93907L3.96416 6.66839H4.01434L4.03943 6.63989H4.06452L4.08961 6.61139H4.1147L4.13979 6.58289H4.18997L4.21506 6.5544H4.24015L4.26524 6.5259H4.29033L4.31542 6.4974H4.34051L4.3656 6.4689H4.39069L4.41578 6.44041H4.44087L4.46596 6.41191H4.49105L4.51614 6.38341H4.54122L4.56631 6.35491H4.5914L4.61649 6.32642H4.64158L4.66667 6.29792H4.69176L4.74194 6.24093H4.76703L4.79212 6.21243H4.81721L4.8423 6.18393H4.86739L4.89248 6.15543H4.91757L4.96775 6.09844H4.99284L5.01793 6.06994H5.04302L5.0932 6.01295H5.11829L5.14338 5.98445H5.16847L5.21864 5.92745H5.24373L5.26882 5.89896H5.29391L5.34409 5.84196H5.36918L5.41936 5.78497H5.44445L5.49463 5.72797H5.51972L5.54481 5.69947H5.5699L5.62008 5.64248H5.64517L5.72044 5.55699H5.74553L5.79571 5.49999H5.82079L5.87097 5.443H5.89606L5.94624 5.386H5.97133L6.0466 5.30051H6.07169L6.12187 5.24352H6.14696L6.22223 5.15802H6.24732L6.32259 5.07253H6.34768L6.42295 4.98704H6.44804L6.5233 4.90155H6.54839L6.64875 4.78756H6.67384L6.7742 4.67357H6.79929L6.92474 4.53108H6.94983L7.12545 4.3316H7.15054L7.77778 3.61916V3.59067L7.90323 3.44818V3.41968L7.9785 3.33419V3.30569L8.02868 3.2487V3.2202L8.05377 3.1917V3.16321L8.07886 3.13471V3.07771H7.95341Z" fill="currentColor"/>
<path d="M9.15771 1.56735L9.13262 1.59585H8.98208L8.95699 1.62435H8.88172L8.85663 1.65284H8.75628L8.73119 1.68134H8.68101L8.65592 1.70984H8.58065L8.55556 1.73834H8.50538L8.48029 1.76683H8.43011L8.40502 1.79533H8.35484L8.32975 1.82383H8.27957L8.25448 1.85233H8.2043L8.17921 1.88082H8.12904L8.10395 1.90932H8.05377L8.02868 1.93782H8.00359L7.9785 1.96632H7.92832L7.90323 1.99481H7.87814L7.85305 2.02331H7.82796L7.80287 2.05181H7.75269L7.7276 2.08031H7.70251L7.67742 2.1088H7.65233L7.62724 2.1373H7.57706L7.55197 2.1658H7.52689L7.5018 2.1943H7.47671L7.45162 2.22279H7.42653L7.40144 2.25129H7.37635L7.35126 2.27979H7.32617L7.30108 2.30828H7.27599L7.2509 2.33678H7.22581L7.20072 2.36528H7.17563L7.15054 2.39378H7.12545L7.10036 2.42227H7.07527L7.05018 2.45077H7.02509L7 2.47927H6.97491L6.92473 2.53626H6.89964L6.87456 2.56476H6.84947L6.82438 2.59326H6.79929L6.7742 2.62176H6.74911L6.72402 2.65025H6.69893L6.67384 2.67875H6.64875L6.59857 2.73575H6.57348L6.54839 2.76424H6.5233L6.49821 2.79274H6.47312L6.42294 2.84974H6.39785L6.37276 2.87823H6.34767L6.32258 2.90673H6.29749L6.24732 2.96373H6.22223L6.19714 2.99222H6.17205L6.12187 3.04922H6.09678L6.07169 3.07771H6.0466L5.99642 3.13471H5.97133L5.94624 3.16321H5.92115L5.87097 3.2202H5.84588L5.7957 3.2772H5.77061L5.72043 3.33419H5.69534L5.64516 3.39119H5.62007L5.5699 3.44818H5.54481L5.49463 3.50518H5.46954L5.41936 3.56217H5.39427L5.34409 3.61917H5.319L5.26882 3.67616H5.24373L5.19355 3.73316H5.16846L5.09319 3.81865H5.0681L5.01792 3.87564H4.99283L4.91757 3.96113H4.89248L4.8423 4.01813H4.81721L4.74194 4.10362H4.71685L4.64158 4.18911H4.61649L4.54122 4.27461H4.51613L4.44086 4.3601H4.41577L4.31542 4.47409H4.29033L4.18997 4.58808H4.16488L4.06452 4.70207H4.03943L3.88889 4.87305H3.8638L3.71326 5.04404H3.68818L3.46237 5.30051H3.43728L2.63441 6.21243V6.24093L2.45878 6.44041V6.46891L2.33334 6.61139V6.63989L2.25807 6.72538V6.75388L2.1828 6.83937V6.86787L2.13262 6.92487V6.95336L2.08244 7.01036V7.03885L2.03226 7.09585V7.12435L1.98208 7.18134V7.20984L1.95699 7.23834V7.26683L1.9319 7.29533V7.32383L1.90681 7.35233V7.38082L1.85663 7.43782V7.49481L1.83154 7.52331V7.55181L1.80645 7.58031V7.6088L1.78137 7.6373V7.6943L1.75628 7.72279V7.77979L1.73119 7.80828V8.09326L1.75628 8.12176V8.15025L1.83154 8.23575H1.85663L1.88172 8.26424H1.90681L1.9319 8.29274H1.98208L2.00717 8.32124H2.48387L2.50896 8.29274H2.63441L2.6595 8.26424H2.73477L2.75986 8.23575H2.86022L2.88531 8.20725H2.93549L2.96058 8.17875H3.03585L3.06094 8.15025H3.11111L3.1362 8.12176H3.18638L3.21147 8.09326H3.26165L3.28674 8.06476H3.33692L3.36201 8.03626H3.41219L3.43728 8.00777H3.46237L3.48746 7.97927H3.53764L3.56273 7.95077H3.61291L3.638 7.92227H3.66309L3.68818 7.89378H3.71326L3.73835 7.86528H3.78853L3.81362 7.83678H3.83871L3.8638 7.80828H3.88889L3.91398 7.77979H3.93907L3.96416 7.75129H4.01434L4.03943 7.72279H4.06452L4.08961 7.6943H4.1147L4.13979 7.6658H4.16488L4.18997 7.6373H4.21506L4.24015 7.6088H4.26524L4.29033 7.58031H4.31542L4.34051 7.55181H4.36559L4.39068 7.52331H4.41577L4.44086 7.49481H4.46595L4.49104 7.46632H4.51613L4.54122 7.43782H4.56631L4.5914 7.40932H4.61649L4.64158 7.38082H4.66667L4.69176 7.35233H4.71685L4.76703 7.29533H4.79212L4.81721 7.26683H4.8423L4.86739 7.23834H4.89248L4.91757 7.20984H4.94266L4.99283 7.15284H5.01792L5.04301 7.12435H5.0681L5.09319 7.09585H5.11828L5.16846 7.03885H5.19355L5.21864 7.01036H5.24373L5.29391 6.95336H5.319L5.34409 6.92487H5.36918L5.41936 6.86787H5.44445L5.49463 6.81088H5.51972L5.54481 6.78238H5.5699L5.62007 6.72538H5.64516L5.69534 6.66839H5.72043L5.74552 6.63989H5.77061L5.82079 6.5829H5.84588L5.89606 6.5259H5.92115L5.97133 6.46891H5.99642L6.0466 6.41191H6.07169L6.12187 6.35492H6.14696L6.19714 6.29792H6.22223L6.29749 6.21243H6.32258L6.37276 6.15544H6.39785L6.47312 6.06994H6.49821L6.54839 6.01295H6.57348L6.64875 5.92746H6.67384L6.72402 5.87046H6.74911L6.82438 5.78497H6.84947L6.92473 5.69948H6.94982L7.02509 5.61398H7.05018L7.15054 5.49999H7.17563L7.27599 5.38601H7.30108L7.40144 5.27202H7.42653L7.55197 5.12953H7.57706L7.70251 4.98704H7.7276L7.90323 4.78756H7.92832L8.25448 4.41709H8.27957L8.53047 4.13212V4.10362L8.88172 3.70466V3.67616L9.05735 3.47668V3.44818L9.15771 3.33419V3.30569L9.25807 3.1917V3.16321L9.33334 3.07771V3.04922L9.38352 2.99222V2.96373L9.4337 2.90673V2.87823L9.48387 2.82124V2.79274L9.53405 2.73575V2.70725L9.58423 2.65025V2.62176L9.60932 2.59326V2.56476L9.63441 2.53626V2.50777L9.6595 2.47927V2.45077L9.68459 2.42227V2.39378L9.70968 2.36528V2.33678L9.73477 2.30828V2.25129L9.75986 2.22279V2.1658L9.78495 2.1373V2.02331L9.81004 1.99481V1.85233L9.78495 1.82383V1.76683L9.75986 1.73834V1.70984L9.68459 1.62435H9.6595L9.63441 1.59585H9.58423L9.55914 1.56735H9.15771Z" fill="currentColor"/>
<path d="M10.2616 0L10.2366 0.0284974H10.0609L10.0358 0.0569948H9.91039L9.8853 0.0854922H9.78495L9.75986 0.11399H9.68459L9.6595 0.142487H9.58423L9.55914 0.170984H9.48387L9.45878 0.199482H9.4086L9.38351 0.227979H9.33333L9.30824 0.256477H9.23297L9.20788 0.284974H9.15771L9.13262 0.313472H9.08244L9.05735 0.341969H9.00717L8.98208 0.370466H8.9319L8.90681 0.398964H8.88172L8.85663 0.427461H8.80645L8.78136 0.455959H8.73118L8.70609 0.484456H8.681L8.65591 0.512953H8.60573L8.58064 0.541451H8.55555L8.53046 0.569948H8.48029L8.4552 0.598446H8.43011L8.40502 0.626943H8.35484L8.32975 0.65544H8.30466L8.27957 0.683938H8.25448L8.22939 0.712435H8.17921L8.15412 0.740933H8.12903L8.10394 0.76943H8.07885L8.05376 0.797928H8.02867L8.00358 0.826425H7.97849L7.9534 0.854922H7.90322L7.87814 0.88342H7.85305L7.82796 0.911917H7.80287L7.77778 0.940415H7.75269L7.7276 0.968912H7.70251L7.67742 0.997409H7.65233L7.62724 1.02591H7.60215L7.57706 1.0544H7.55197L7.52688 1.0829H7.50179L7.4767 1.1114H7.45161L7.42652 1.1399H7.40143L7.37634 1.16839H7.35125L7.32616 1.19689H7.30107L7.27598 1.22539H7.2509L7.22581 1.25389H7.20072L7.17563 1.28238H7.15054L7.12545 1.31088H7.10036L7.05018 1.36788H7.02509L7 1.39637H6.97491L6.94982 1.42487H6.92473L6.89964 1.45337H6.87455L6.84946 1.48187H6.82437L6.79928 1.51036H6.77419L6.72401 1.56736H6.69892L6.67383 1.59586H6.64874L6.62366 1.62435H6.59857L6.57348 1.65285H6.54839L6.49821 1.70984H6.47312L6.44803 1.73834H6.42294L6.39785 1.76684H6.37276L6.32258 1.82383H6.29749L6.2724 1.85233H6.24731L6.19713 1.90933H6.17204L6.14695 1.93782H6.12186L6.07168 1.99482H6.04659L6.0215 2.02332H5.99642L5.94624 2.08031H5.92115L5.89606 2.10881H5.87097L5.82079 2.1658H5.7957L5.77061 2.1943H5.74552L5.69534 2.2513H5.67025L5.62007 2.30829H5.59498L5.56989 2.33679H5.5448L5.49462 2.39378H5.46953L5.41935 2.45078H5.39426L5.34409 2.50777H5.319L5.29391 2.53627H5.26882L5.21864 2.59326H5.19355L5.14337 2.65026H5.11828L5.0681 2.70725H5.04301L4.99283 2.76425H4.96774L4.91756 2.82124H4.89247L4.84229 2.87824H4.8172L4.76702 2.93523H4.74193L4.69176 2.99223H4.66667L4.61649 3.04922H4.5914L4.54122 3.10622H4.51613L4.46595 3.16321H4.44086L4.39068 3.22021H4.36559L4.31541 3.2772H4.29032L4.21505 3.36269H4.18996L4.13978 3.41969H4.11469L4.03943 3.50518H4.01434L3.96416 3.56218H3.93907L3.8638 3.64767H3.83871L3.76344 3.73316H3.73835L3.68817 3.79016H3.66308L3.58781 3.87565H3.56272L3.46237 3.98964H3.43728L3.36201 4.07513H3.33692L3.26165 4.16062H3.23656L3.1362 4.27461H3.11111L3.03584 4.3601H3.01075L2.91039 4.47409H2.8853L2.75986 4.61658H2.73477L2.60932 4.75907H2.58423L2.43369 4.93005H2.4086L2.23297 5.12953H2.20789L1.9319 5.44301H1.90681L1.50538 5.89896V5.92746L1.2043 6.26943V6.29793L1.02867 6.49741V6.52591L0.903226 6.66839V6.69689L0.802867 6.81088V6.83938L0.702509 6.95337V6.98187L0.65233 7.03886V7.06736L0.577061 7.15285V7.18135L0.501792 7.26684V7.29534L0.451613 7.35233V7.38083L0.426523 7.40933V7.43782L0.376344 7.49482V7.52332L0.326165 7.58031V7.60881L0.301075 7.63731V7.6658L0.275986 7.6943V7.7228L0.250896 7.7513V7.77979L0.225806 7.80829V7.83679L0.200717 7.86529V7.89378L0.175627 7.92228V7.95078L0.150538 7.97928V8.00777L0.125448 8.03627V8.09326L0.100358 8.12176V8.17876L0.0752688 8.20725V8.26425L0.0501792 8.29275V8.37824L0.0250896 8.40674V8.54922L0 8.57772V8.8342L0.0250896 8.86269V8.97668L0.0501792 9.00518V9.09067L0.0752688 9.11917V9.14767L0.100358 9.17617V9.23316L0.150538 9.29016V9.31865L0.200717 9.37565V9.40415L0.326165 9.54663H0.351254L0.401434 9.60363H0.426523L0.451613 9.63212H0.476702L0.501792 9.66062H0.526882L0.551971 9.68912H0.60215L0.62724 9.71762H0.677419L0.702509 9.74611H0.777778L0.802867 9.77461H0.953405L0.978495 9.80311H1.15412L1.17921 9.77461H1.4552L1.48029 9.74611H1.65591L1.681 9.71762H1.78136L1.80645 9.68912H1.90681L1.9319 9.66062H2.00717L2.03226 9.63212H2.10753L2.13262 9.60363H2.1828L2.20789 9.57513H2.28315L2.30824 9.54663H2.35842L2.38351 9.51814H2.45878L2.48387 9.48964H2.53405L2.55914 9.46114H2.60932L2.63441 9.43264H2.68459L2.70968 9.40415H2.75986L2.78495 9.37565H2.81004L2.83513 9.34715H2.8853L2.91039 9.31865H2.96057L2.98566 9.29016H3.01075L3.03584 9.26166H3.08602L3.11111 9.23316H3.1362L3.16129 9.20466H3.21147L3.23656 9.17617H3.26165L3.28674 9.14767H3.31183L3.33692 9.11917H3.3871L3.41219 9.09067H3.43728L3.46237 9.06218H3.48745L3.51254 9.03368H3.56272L3.58781 9.00518H3.6129L3.63799 8.97668H3.66308L3.68817 8.94819H3.71326L3.73835 8.91969H3.76344L3.78853 8.89119H3.81362L3.83871 8.86269H3.8638L3.88889 8.8342H3.91398L3.93907 8.8057H3.96416L3.98925 8.7772H4.01434L4.03943 8.74871H4.06452L4.08961 8.72021H4.11469L4.13978 8.69171H4.16487L4.18996 8.66321H4.21505L4.24014 8.63472H4.26523L4.29032 8.60622H4.31541L4.3405 8.57772H4.36559L4.39068 8.54922H4.41577L4.44086 8.52073H4.46595L4.49104 8.49223H4.51613L4.56631 8.43523H4.5914L4.61649 8.40674H4.64158L4.66667 8.37824H4.69176L4.71685 8.34974H4.74193L4.76702 8.32124H4.79211L4.84229 8.26425H4.86738L4.89247 8.23575H4.91756L4.94265 8.20725H4.96774L4.99283 8.17876H5.01792L5.0681 8.12176H5.09319L5.11828 8.09326H5.14337L5.19355 8.03627H5.21864L5.24373 8.00777H5.26882L5.29391 7.97928H5.319L5.36918 7.92228H5.39426L5.41935 7.89378H5.44444L5.49462 7.83679H5.51971L5.5448 7.80829H5.56989L5.62007 7.7513H5.64516L5.69534 7.6943H5.72043L5.74552 7.6658H5.77061L5.82079 7.60881H5.84588L5.89606 7.55181H5.92115L5.94624 7.52332H5.97133L6.0215 7.46632H6.04659L6.09677 7.40933H6.12186L6.17204 7.35233H6.19713L6.24731 7.29534H6.2724L6.32258 7.23834H6.34767L6.39785 7.18135H6.42294L6.47312 7.12435H6.49821L6.57348 7.03886H6.59857L6.64874 6.98187H6.67383L6.7491 6.89637H6.77419L6.82437 6.83938H6.84946L6.92473 6.75389H6.94982L7 6.69689H7.02509L7.10036 6.6114H7.12545L7.20072 6.52591H7.22581L7.30107 6.44041H7.32616L7.40143 6.35492H7.42652L7.52688 6.24093H7.55197L7.62724 6.15544H7.65233L7.75269 6.04145H7.77778L7.87814 5.92746H7.90322L8.00358 5.81347H8.02867L8.12903 5.69948H8.15412L8.27957 5.557H8.30466L8.48029 5.35751H8.50538L8.65591 5.18653H8.681L8.88172 4.95855H8.90681L9.15771 4.67358H9.18279L10.0108 3.73316V3.70466L10.2366 3.44819V3.41969L10.3871 3.2487V3.22021L10.4875 3.10622V3.07772L10.5878 2.96373V2.93523L10.6631 2.84974V2.82124L10.7133 2.76425V2.73575L10.7885 2.65026V2.62176L10.8387 2.56477V2.53627L10.8889 2.47927V2.45078L10.9391 2.39378V2.36529L10.9642 2.33679V2.30829L11.0143 2.2513V2.2228L11.0394 2.1943V2.1658L11.0896 2.10881V2.08031L11.1147 2.05181V2.02332L11.1398 1.99482V1.96632L11.1649 1.93782V1.90933L11.19 1.88083V1.85233L11.2151 1.82383V1.79534L11.2401 1.76684V1.70984L11.2652 1.68135V1.65285L11.2903 1.62435V1.56736L11.3154 1.53886V1.51036L11.3405 1.48187V1.39637L11.3656 1.36788V1.28238L11.3907 1.25389V1.1399L11.4158 1.1114V0.712435L11.3907 0.683938V0.626943L11.3656 0.598446V0.541451L11.3405 0.512953V0.484456L11.3154 0.455959V0.427461L11.2151 0.313472V0.284974H11.19L11.0896 0.170984H11.0645L11.0394 0.142487H11.0143L10.9892 0.11399H10.9642L10.9391 0.0854922H10.8889L10.8638 0.0569948H10.8136L10.7885 0.0284974H10.638L10.6129 0H10.2616Z" fill="currentColor"/>
<path d="M9.28315 0.968912L9.30824 0.940414H9.6344L9.65949 0.968912H9.75985L9.78494 0.997409H9.83512L9.86021 1.02591H9.91039L9.93548 1.0544H9.96057L10.0107 1.1114H10.0358L10.1111 1.19689H10.1362L10.1864 1.25389V1.28238L10.2616 1.36788V1.39637L10.2867 1.42487V1.45337L10.3118 1.48187V1.56736L10.3369 1.59585V2.05181L10.3118 2.08031V2.1658L10.2867 2.1943V2.27979L10.2616 2.30829V2.36528L10.2366 2.39378V2.42228L10.2115 2.45078V2.50777L10.1864 2.53627V2.56477L10.1613 2.59326V2.62176L10.1362 2.65026V2.67876L10.1111 2.70725V2.73575L10.086 2.76425V2.79275L10.0609 2.82124V2.84974L10.0358 2.87824V2.90674L10.0107 2.93523V2.96373L9.96057 3.02073V3.04922L9.91039 3.10622V3.13472L9.86021 3.19171V3.22021L9.81003 3.2772V3.3057L9.73476 3.39119V3.41969L9.6344 3.53368V3.56218L9.55913 3.64767V3.67617L9.4086 3.84715V3.87565L9.1577 4.16062V4.18912L8.60573 4.81606H8.58064L8.30465 5.12953H8.27956L8.07885 5.35751H8.05376L7.90322 5.5285H7.87813L7.77777 5.64249H7.75268L7.65232 5.75648H7.62723L7.52688 5.87047H7.50179L7.40143 5.98446H7.37634L7.30107 6.06995H7.27598L7.17562 6.18394H7.15053L7.07526 6.26943H7.05017L6.9749 6.35492H6.94982L6.89964 6.41192H6.87455L6.79928 6.49741H6.77419L6.69892 6.5829H6.67383L6.62365 6.6399H6.59856L6.54838 6.69689H6.52329L6.47311 6.75389H6.44802L6.39784 6.81088H6.37275L6.29749 6.89637H6.2724L6.22222 6.95337H6.19713L6.14695 7.01036H6.12186L6.09677 7.03886H6.07168L6.0215 7.09586H5.99641L5.94623 7.15285H5.92114L5.87096 7.20984H5.84587L5.82078 7.23834H5.79569L5.74551 7.29534H5.72042L5.67025 7.35233H5.64516L5.62007 7.38083H5.59498L5.5448 7.43782H5.51971L5.49462 7.46632H5.46953L5.41935 7.52332H5.39426L5.36917 7.55181H5.34408L5.2939 7.60881H5.26881L5.24372 7.63731H5.21863L5.19354 7.6658H5.16845L5.11827 7.7228H5.09318L5.06809 7.7513H5.04301L5.01792 7.77979H4.99283L4.94265 7.83679H4.91756L4.89247 7.86529H4.86738L4.84229 7.89378H4.8172L4.79211 7.92228H4.76702L4.74193 7.95078H4.71684L4.69175 7.97927H4.66666L4.64157 8.00777H4.61648L4.59139 8.03627H4.5663L4.54121 8.06477H4.51612L4.49103 8.09326H4.46594L4.44085 8.12176H4.41577L4.39068 8.15026H4.36559L4.3405 8.17876H4.31541L4.29032 8.20725H4.26523L4.24014 8.23575H4.21505L4.18996 8.26425H4.16487L4.13978 8.29275H4.11469L4.0896 8.32124H4.06451L4.03942 8.34974H4.01433L3.98924 8.37824H3.93906L3.91397 8.40674H3.88888L3.86379 8.43523H3.8387L3.81361 8.46373H3.78853L3.76344 8.49223H3.71326L3.68817 8.52073H3.66308L3.63799 8.54922H3.58781L3.56272 8.57772H3.53763L3.51254 8.60622H3.46236L3.43727 8.63472H3.38709L3.362 8.66321H3.33691L3.31182 8.69171H3.23655L3.21146 8.72021H3.16128L3.1362 8.74871H3.08602L3.06093 8.7772H2.98566L2.96057 8.8057H2.8853L2.86021 8.8342H2.75985L2.73476 8.86269H2.6344L2.60931 8.89119H2.45878L2.43369 8.91969H2.03225L2.00716 8.89119H1.88172L1.85663 8.86269H1.78136L1.75627 8.8342H1.73118L1.70609 8.8057H1.65591L1.63082 8.7772H1.60573L1.55555 8.72021H1.53046L1.32974 8.49223V8.46373L1.30465 8.43523V8.40674L1.27956 8.37824V8.34974L1.25447 8.32124V8.26425L1.22939 8.23575V7.77979L1.25447 7.7513V7.6658L1.27956 7.63731V7.58031L1.30465 7.55181V7.49482L1.32974 7.46632V7.40933L1.35483 7.38083V7.35233L1.37992 7.32383V7.29534L1.40501 7.26684V7.23834L1.4301 7.20984V7.18135L1.45519 7.15285V7.12435L1.48028 7.09586V7.06736L1.50537 7.03886V7.01036L1.55555 6.95337V6.92487L1.60573 6.86788V6.83938L1.63082 6.81088V6.78238L1.681 6.72539V6.69689L1.73118 6.6399V6.6114L1.80645 6.52591V6.49741L1.88172 6.41192V6.38342L1.98207 6.26943V6.24093L2.10752 6.09845V6.06995L2.33333 5.81347V5.78497L2.96057 5.07254H2.98566L3.23655 4.78756H3.26164L3.43727 4.58808H3.46236L3.58781 4.4456H3.6129L3.73835 4.30311H3.76344L3.86379 4.18912H3.88888L3.98924 4.07513H4.01433L4.11469 3.96114H4.13978L4.21505 3.87565H4.24014L4.3405 3.76166H4.36559L4.41577 3.70466H4.44085L4.51612 3.61917H4.54121L4.61648 3.53368H4.64157L4.69175 3.47668H4.71684L4.79211 3.39119H4.8172L4.86738 3.3342H4.89247L4.96774 3.2487H4.99283L5.04301 3.19171H5.06809L5.11827 3.13472H5.14336L5.19354 3.07772H5.21863L5.2939 2.99223H5.31899L5.36917 2.93523H5.39426L5.41935 2.90674H5.44444L5.49462 2.84974H5.51971L5.56989 2.79275H5.59498L5.64516 2.73575H5.67025L5.72042 2.67876H5.74551L5.7706 2.65026H5.79569L5.84587 2.59326H5.87096L5.92114 2.53627H5.94623L5.97132 2.50777H5.99641L6.04659 2.45078H6.07168L6.09677 2.42228H6.12186L6.17204 2.36528H6.19713L6.22222 2.33679H6.24731L6.2724 2.30829H6.29749L6.34766 2.2513H6.37275L6.39784 2.2228H6.42293L6.47311 2.1658H6.4982L6.52329 2.13731H6.54838L6.57347 2.10881H6.59856L6.62365 2.08031H6.64874L6.67383 2.05181H6.69892L6.7491 1.99482H6.77419L6.79928 1.96632H6.82437L6.84946 1.93782H6.87455L6.89964 1.90933H6.92473L6.94982 1.88083H6.9749L6.99999 1.85233H7.02508L7.05017 1.82383H7.07526L7.10035 1.79534H7.12544L7.15053 1.76684H7.17562L7.20071 1.73834H7.2258L7.25089 1.70984H7.27598L7.30107 1.68135H7.32616L7.35125 1.65285H7.37634L7.40143 1.62435H7.42652L7.45161 1.59585H7.4767L7.50179 1.56736H7.52688L7.55197 1.53886H7.60214L7.62723 1.51036H7.65232L7.67741 1.48187H7.7025L7.72759 1.45337H7.77777L7.80286 1.42487H7.82795L7.85304 1.39637H7.90322L7.92831 1.36788H7.9534L7.97849 1.33938H8.02867L8.05376 1.31088H8.07885L8.10394 1.28238H8.15412L8.17921 1.25389H8.22939L8.25447 1.22539H8.30465L8.32974 1.19689H8.37992L8.40501 1.16839H8.45519L8.48028 1.1399H8.53046L8.55555 1.1114H8.63082L8.65591 1.0829H8.73118L8.75627 1.0544H8.83154L8.85663 1.02591H8.93189L8.95698 0.997409H9.08243L9.10752 0.968912H9.28315Z" fill="currentColor"/>
</svg>
